<svg xmlns="http://www.w3.org/2000/svg" version="1.1" xmlns:xlink="http://www.w3.org/1999/xlink" xmlns:svgjs="http://svgjs.dev/svgjs" viewBox="0 0 650 600" width="100%"><g id="top"><g><circle r="7.291074682949721" cx="235.6964177235009" cy="525.6964177235009" fill="#fac029" stroke-width="2.4303582276499074" stroke="#fac029"></circle></g><g><circle r="7.291074682949721" cx="235.6964177235009" cy="493.4540723344293" fill="#900c00" stroke-width="2.4303582276499074" stroke="#900c00"></circle></g><g><circle r="7.291074682949721" cx="235.6964177235009" cy="461.2117269453578" fill="#900c00" stroke-width="2.4303582276499074" stroke="#900c00"></circle></g><g><circle r="7.291074682949721" cx="235.69641772350093" cy="428.9693815562862" fill="#900c00" stroke-width="2.4303582276499074" stroke="#900c00"></circle></g><g><circle r="7.291074682949721" cx="235.69641772350093" cy="396.72703616721464" fill="#900c00" stroke-width="2.4303582276499074" stroke="#900c00"></circle></g><g><circle r="7.291074682949721" cx="235.69641772350093" cy="364.4846907781431" fill="#900c00" stroke-width="2.4303582276499074" stroke="#900c00"></circle></g><g><circle r="7.291074682949721" cx="235.69641772350093" cy="332.2423453890715" fill="#900c00" stroke-width="2.4303582276499074" stroke="#900c00"></circle></g><g><circle r="7.291074682949721" cx="235.69641772350093" cy="299.99999999999994" fill="#900c00" stroke-width="2.4303582276499074" stroke="#900c00"></circle></g><g><circle r="7.291074682949721" cx="235.69641772350096" cy="267.7576546109284" fill="#900c00" stroke-width="2.4303582276499074" stroke="#900c00"></circle></g><g><circle r="7.291074682949721" cx="235.69641772350096" cy="235.51530922185688" fill="#900c00" stroke-width="2.4303582276499074" stroke="#900c00"></circle></g><g><circle r="7.291074682949721" cx="235.69641772350096" cy="203.27296383278534" fill="#900c00" stroke-width="2.4303582276499074" stroke="#900c00"></circle></g><g><circle r="7.291074682949721" cx="235.69641772350096" cy="171.0306184437138" fill="#900c00" stroke-width="2.4303582276499074" stroke="#900c00"></circle></g><g><circle r="7.291074682949721" cx="235.69641772350099" cy="138.78827305464225" fill="#900c00" stroke-width="2.4303582276499074" stroke="#900c00"></circle></g><g><circle r="7.291074682949721" cx="235.69641772350099" cy="106.54592766557067" fill="#a71503" stroke-width="2.4303582276499074" stroke="#a71503"></circle></g><g><circle r="7.291074682949721" cx="235.69641772350099" cy="74.30358227649904" fill="#4bf885" stroke-width="2.4303582276499074" stroke="#4bf885"></circle></g><g><circle r="7.291074682949721" cx="284.3035822764991" cy="74.30358227649913" fill="#4bf885" stroke-width="2.4303582276499074" stroke="#4bf885"></circle></g><g><circle r="7.291074682949721" cx="284.30358227649907" cy="106.54592766557067" fill="#a71503" stroke-width="2.4303582276499074" stroke="#a71503"></circle></g><g><circle r="7.291074682949721" cx="284.30358227649907" cy="138.78827305464225" fill="#900c00" stroke-width="2.4303582276499074" stroke="#900c00"></circle></g><g><circle r="7.291074682949721" cx="284.30358227649907" cy="171.0306184437138" fill="#900c00" stroke-width="2.4303582276499074" stroke="#900c00"></circle></g><g><circle r="7.291074682949721" cx="284.30358227649907" cy="203.27296383278534" fill="#900c00" stroke-width="2.4303582276499074" stroke="#900c00"></circle></g><g><circle r="7.291074682949721" cx="284.30358227649907" cy="235.51530922185688" fill="#900c00" stroke-width="2.4303582276499074" stroke="#900c00"></circle></g><g><circle r="7.291074682949721" cx="284.30358227649907" cy="267.7576546109284" fill="#900c00" stroke-width="2.4303582276499074" stroke="#900c00"></circle></g><g><circle r="7.291074682949721" cx="284.30358227649907" cy="300" fill="#900c00" stroke-width="2.4303582276499074" stroke="#900c00"></circle></g><g><circle r="7.291074682949721" cx="284.30358227649907" cy="332.24234538907155" fill="#900c00" stroke-width="2.4303582276499074" stroke="#900c00"></circle></g><g><circle r="7.291074682949721" cx="284.303582276499" cy="364.4846907781431" fill="#900c00" stroke-width="2.4303582276499074" stroke="#900c00"></circle></g><g><circle r="7.291074682949721" cx="284.303582276499" cy="396.7270361672147" fill="#900c00" stroke-width="2.4303582276499074" stroke="#900c00"></circle></g><g><circle r="7.291074682949721" cx="284.303582276499" cy="428.9693815562862" fill="#900c00" stroke-width="2.4303582276499074" stroke="#900c00"></circle></g><g><circle r="7.291074682949721" cx="284.303582276499" cy="461.2117269453578" fill="#900c00" stroke-width="2.4303582276499074" stroke="#900c00"></circle></g><g><circle r="7.291074682949721" cx="284.303582276499" cy="493.4540723344293" fill="#900c00" stroke-width="2.4303582276499074" stroke="#900c00"></circle></g><g><circle r="7.291074682949721" cx="284.303582276499" cy="525.6964177235009" fill="#fac029" stroke-width="2.4303582276499074" stroke="#fac029"></circle></g></g><g><g><line x1="235.6964177235009" y1="525.6964177235009" x2="259.99999999999994" y2="525.6964177235009" stroke-linecap="round" stroke-width="2.4303582276499074" stroke="black" fill="black"></line><g></g></g><g></g><g><line x1="235.6964177235009" y1="493.4540723344293" x2="260" y2="493.4540723344293" stroke-linecap="round" stroke-width="2.4303582276499074" stroke="black" fill="black"></line><g></g></g><g></g><g><line x1="235.6964177235009" y1="461.2117269453578" x2="260" y2="461.2117269453578" stroke-linecap="round" stroke-width="2.4303582276499074" stroke="black" fill="black"></line><g></g></g><g></g><g><line x1="235.69641772350093" y1="428.9693815562862" x2="260" y2="428.9693815562862" stroke-linecap="round" stroke-width="2.4303582276499074" stroke="black" fill="black"></line><g></g></g><g></g><g><line x1="235.69641772350093" y1="396.72703616721464" x2="260" y2="396.72703616721464" stroke-linecap="round" stroke-width="2.4303582276499074" stroke="black" fill="black"></line><g></g></g><g></g><g><line x1="235.69641772350093" y1="364.4846907781431" x2="260" y2="364.4846907781431" stroke-linecap="round" stroke-width="2.4303582276499074" stroke="black" fill="black"></line><g></g></g><g></g><g><line x1="235.69641772350093" y1="332.2423453890715" x2="260" y2="332.2423453890715" stroke-linecap="round" stroke-width="2.4303582276499074" stroke="black" fill="black"></line><g></g></g><g></g><g><line x1="235.69641772350093" y1="299.99999999999994" x2="260" y2="299.99999999999994" stroke-linecap="round" stroke-width="2.4303582276499074" stroke="black" fill="black"></line><g></g></g><g></g><g><line x1="235.69641772350096" y1="267.7576546109284" x2="260" y2="267.7576546109284" stroke-linecap="round" stroke-width="2.4303582276499074" stroke="black" fill="black"></line><g></g></g><g></g><g><line x1="235.69641772350096" y1="235.51530922185688" x2="260" y2="235.51530922185688" stroke-linecap="round" stroke-width="2.4303582276499074" stroke="black" fill="black"></line><g></g></g><g></g><g><line x1="235.69641772350096" y1="203.27296383278534" x2="260" y2="203.27296383278534" stroke-linecap="round" stroke-width="2.4303582276499074" stroke="black" fill="black"></line><g></g></g><g></g><g><line x1="235.69641772350096" y1="171.0306184437138" x2="260" y2="171.0306184437138" stroke-linecap="round" stroke-width="2.4303582276499074" stroke="black" fill="black"></line><g></g></g><g></g><g><line x1="235.69641772350099" y1="138.78827305464225" x2="260" y2="138.78827305464225" stroke-linecap="round" stroke-width="2.4303582276499074" stroke="black" fill="black"></line><g></g></g><g></g><g><line x1="235.69641772350099" y1="106.54592766557067" x2="260" y2="106.54592766557067" stroke-linecap="round" stroke-width="2.4303582276499074" stroke="black" fill="black"></line><g></g></g><g></g><g><line x1="235.69641772350099" y1="74.30358227649904" x2="260" y2="74.30358227649904" stroke-linecap="round" stroke-width="2.4303582276499074" stroke="black" fill="black"></line><g></g></g><g></g><g><line x1="284.3035822764991" y1="74.30358227649913" x2="260" y2="74.30358227649904" stroke-linecap="round" stroke-width="2.4303582276499074" stroke="black" fill="black"></line><g></g></g><g></g><g><line x1="284.30358227649907" y1="106.54592766557067" x2="260" y2="106.54592766557067" stroke-linecap="round" stroke-width="2.4303582276499074" stroke="black" fill="black"></line><g></g></g><g></g><g><line x1="284.30358227649907" y1="138.78827305464225" x2="260" y2="138.78827305464225" stroke-linecap="round" stroke-width="2.4303582276499074" stroke="black" fill="black"></line><g></g></g><g></g><g><line x1="284.30358227649907" y1="171.0306184437138" x2="260" y2="171.0306184437138" stroke-linecap="round" stroke-width="2.4303582276499074" stroke="black" fill="black"></line><g></g></g><g></g><g><line x1="284.30358227649907" y1="203.27296383278534" x2="260" y2="203.27296383278534" stroke-linecap="round" stroke-width="2.4303582276499074" stroke="black" fill="black"></line><g></g></g><g></g><g><line x1="284.30358227649907" y1="235.51530922185688" x2="260" y2="235.51530922185688" stroke-linecap="round" stroke-width="2.4303582276499074" stroke="black" fill="black"></line><g></g></g><g></g><g><line x1="284.30358227649907" y1="267.7576546109284" x2="260" y2="267.7576546109284" stroke-linecap="round" stroke-width="2.4303582276499074" stroke="black" fill="black"></line><g></g></g><g></g><g><line x1="284.30358227649907" y1="300" x2="260" y2="299.99999999999994" stroke-linecap="round" stroke-width="2.4303582276499074" stroke="black" fill="black"></line><g></g></g><g></g><g><line x1="284.30358227649907" y1="332.24234538907155" x2="260" y2="332.2423453890715" stroke-linecap="round" stroke-width="2.4303582276499074" stroke="black" fill="black"></line><g></g></g><g></g><g><line x1="284.303582276499" y1="364.4846907781431" x2="260" y2="364.4846907781431" stroke-linecap="round" stroke-width="2.4303582276499074" stroke="black" fill="black"></line><g></g></g><g></g><g><line x1="284.303582276499" y1="396.7270361672147" x2="260" y2="396.72703616721464" stroke-linecap="round" stroke-width="2.4303582276499074" stroke="black" fill="black"></line><g></g></g><g></g><g><line x1="284.303582276499" y1="428.9693815562862" x2="260" y2="428.9693815562862" stroke-linecap="round" stroke-width="2.4303582276499074" stroke="black" fill="black"></line><g></g></g><g></g><g><line x1="284.303582276499" y1="461.2117269453578" x2="260" y2="461.2117269453578" stroke-linecap="round" stroke-width="2.4303582276499074" stroke="black" fill="black"></line><g></g></g><g></g><g><line x1="284.303582276499" y1="493.4540723344293" x2="260" y2="493.4540723344293" stroke-linecap="round" stroke-width="2.4303582276499074" stroke="black" fill="black"></line><g></g></g><g></g><g><line x1="284.303582276499" y1="525.6964177235009" x2="259.99999999999994" y2="525.6964177235009" stroke-linecap="round" stroke-width="2.4303582276499074" stroke="black" fill="black"></line><g></g></g><g></g></g><g><line x1="235.6964177235009" y1="525.6964177235009" x2="235.6964177235009" y2="525.6964177235009" stroke-linecap="round" stroke-opacity="1" stroke-width="4.860716455299815" stroke="black" fill="black"></line><line x1="235.6964177235009" y1="525.6964177235009" x2="235.6964177235009" y2="509.5752450289651" stroke-linecap="round" stroke-opacity="1" stroke-width="4.860716455299815" stroke="black" fill="black"></line><line x1="235.6964177235009" y1="493.4540723344293" x2="235.6964177235009" y2="509.5752450289651" stroke-linecap="round" stroke-opacity="1" stroke-width="4.860716455299815" stroke="black" fill="black"></line><line x1="235.6964177235009" y1="493.4540723344293" x2="235.6964177235009" y2="477.3328996398935" stroke-linecap="round" stroke-opacity="1" stroke-width="4.860716455299815" stroke="black" fill="black"></line><line x1="235.6964177235009" y1="461.2117269453578" x2="235.6964177235009" y2="477.3328996398935" stroke-linecap="round" stroke-opacity="1" stroke-width="4.860716455299815" stroke="black" fill="black"></line><line x1="235.6964177235009" y1="461.2117269453578" x2="235.69641772350093" y2="445.090554250822" stroke-linecap="round" stroke-opacity="1" stroke-width="4.860716455299815" stroke="black" fill="black"></line><line x1="235.69641772350093" y1="428.9693815562862" x2="235.69641772350093" y2="445.090554250822" stroke-linecap="round" stroke-opacity="1" stroke-width="4.860716455299815" stroke="black" fill="black"></line><line x1="235.69641772350093" y1="428.9693815562862" x2="235.69641772350093" y2="412.84820886175044" stroke-linecap="round" stroke-opacity="1" stroke-width="4.860716455299815" stroke="black" fill="black"></line><line x1="235.69641772350093" y1="396.72703616721464" x2="235.69641772350093" y2="412.84820886175044" stroke-linecap="round" stroke-opacity="1" stroke-width="4.860716455299815" stroke="black" fill="black"></line><line x1="235.69641772350093" y1="396.72703616721464" x2="235.69641772350093" y2="380.60586347267883" stroke-linecap="round" stroke-opacity="1" stroke-width="4.860716455299815" stroke="black" fill="black"></line><line x1="235.69641772350093" y1="364.4846907781431" x2="235.69641772350093" y2="380.60586347267883" stroke-linecap="round" stroke-opacity="1" stroke-width="4.860716455299815" stroke="black" fill="black"></line><line x1="235.69641772350093" y1="364.4846907781431" x2="235.69641772350093" y2="348.3635180836073" stroke-linecap="round" stroke-opacity="1" stroke-width="4.860716455299815" stroke="black" fill="black"></line><line x1="235.69641772350093" y1="332.2423453890715" x2="235.69641772350093" y2="348.3635180836073" stroke-linecap="round" stroke-opacity="1" stroke-width="4.860716455299815" stroke="black" fill="black"></line><line x1="235.69641772350093" y1="332.2423453890715" x2="235.69641772350093" y2="316.12117269453574" stroke-linecap="round" stroke-opacity="1" stroke-width="4.860716455299815" stroke="black" fill="black"></line><line x1="235.69641772350093" y1="299.99999999999994" x2="235.69641772350093" y2="316.12117269453574" stroke-linecap="round" stroke-opacity="1" stroke-width="4.860716455299815" stroke="black" fill="black"></line><line x1="235.69641772350093" y1="299.99999999999994" x2="235.69641772350096" y2="283.8788273054642" stroke-linecap="round" stroke-opacity="1" stroke-width="4.860716455299815" stroke="black" fill="black"></line><line x1="235.69641772350096" y1="267.7576546109284" x2="235.69641772350096" y2="283.8788273054642" stroke-linecap="round" stroke-opacity="1" stroke-width="4.860716455299815" stroke="black" fill="black"></line><line x1="235.69641772350096" y1="267.7576546109284" x2="235.69641772350096" y2="251.63648191639265" stroke-linecap="round" stroke-opacity="1" stroke-width="4.860716455299815" stroke="black" fill="black"></line><line x1="235.69641772350096" y1="235.51530922185688" x2="235.69641772350096" y2="251.63648191639265" stroke-linecap="round" stroke-opacity="1" stroke-width="4.860716455299815" stroke="black" fill="black"></line><line x1="235.69641772350096" y1="235.51530922185688" x2="235.69641772350096" y2="219.3941365273211" stroke-linecap="round" stroke-opacity="1" stroke-width="4.860716455299815" stroke="black" fill="black"></line><line x1="235.69641772350096" y1="203.27296383278534" x2="235.69641772350096" y2="219.3941365273211" stroke-linecap="round" stroke-opacity="1" stroke-width="4.860716455299815" stroke="black" fill="black"></line><line x1="235.69641772350096" y1="203.27296383278534" x2="235.69641772350096" y2="187.15179113824956" stroke-linecap="round" stroke-opacity="1" stroke-width="4.860716455299815" stroke="black" fill="black"></line><line x1="235.69641772350096" y1="171.0306184437138" x2="235.69641772350096" y2="187.15179113824956" stroke-linecap="round" stroke-opacity="1" stroke-width="4.860716455299815" stroke="black" fill="black"></line><line x1="235.69641772350096" y1="171.0306184437138" x2="235.69641772350099" y2="154.90944574917802" stroke-linecap="round" stroke-opacity="1" stroke-width="4.860716455299815" stroke="black" fill="black"></line><line x1="235.69641772350099" y1="138.78827305464225" x2="235.69641772350099" y2="154.90944574917802" stroke-linecap="round" stroke-opacity="1" stroke-width="4.860716455299815" stroke="black" fill="black"></line><line x1="235.69641772350099" y1="138.78827305464225" x2="235.69641772350099" y2="122.66710036010647" stroke-linecap="round" stroke-opacity="1" stroke-width="4.860716455299815" stroke="black" fill="black"></line><line x1="235.69641772350099" y1="106.54592766557067" x2="235.69641772350099" y2="122.66710036010647" stroke-linecap="round" stroke-opacity="1" stroke-width="4.860716455299815" stroke="black" fill="black"></line><line x1="235.69641772350099" y1="106.54592766557067" x2="235.69641772350099" y2="90.42475497103484" stroke-linecap="round" stroke-opacity="1" stroke-width="4.860716455299815" stroke="black" fill="black"></line><line x1="235.69641772350099" y1="74.30358227649904" x2="235.69641772350099" y2="90.42475497103484" stroke-linecap="round" stroke-opacity="1" stroke-width="4.860716455299815" stroke="black" fill="black"></line><line x1="235.69641772350099" y1="74.30358227649904" x2="235.69641772350099" y2="74.30358227649904" stroke-linecap="round" stroke-opacity="1" stroke-width="4.860716455299815" stroke="black" fill="black"></line><line x1="284.3035822764991" y1="74.30358227649913" x2="284.3035822764991" y2="74.30358227649913" stroke-linecap="round" stroke-opacity="1" stroke-width="4.860716455299815" stroke="black" fill="black"></line><line x1="284.3035822764991" y1="74.30358227649913" x2="284.30358227649907" y2="90.4247549710349" stroke-linecap="round" stroke-opacity="1" stroke-width="4.860716455299815" stroke="black" fill="black"></line><line x1="284.30358227649907" y1="106.54592766557067" x2="284.30358227649907" y2="90.4247549710349" stroke-linecap="round" stroke-opacity="1" stroke-width="4.860716455299815" stroke="black" fill="black"></line><line x1="284.30358227649907" y1="106.54592766557067" x2="284.30358227649907" y2="122.66710036010647" stroke-linecap="round" stroke-opacity="1" stroke-width="4.860716455299815" stroke="black" fill="black"></line><line x1="284.30358227649907" y1="138.78827305464225" x2="284.30358227649907" y2="122.66710036010647" stroke-linecap="round" stroke-opacity="1" stroke-width="4.860716455299815" stroke="black" fill="black"></line><line x1="284.30358227649907" y1="138.78827305464225" x2="284.30358227649907" y2="154.90944574917802" stroke-linecap="round" stroke-opacity="1" stroke-width="4.860716455299815" stroke="black" fill="black"></line><line x1="284.30358227649907" y1="171.0306184437138" x2="284.30358227649907" y2="154.90944574917802" stroke-linecap="round" stroke-opacity="1" stroke-width="4.860716455299815" stroke="black" fill="black"></line><line x1="284.30358227649907" y1="171.0306184437138" x2="284.30358227649907" y2="187.15179113824956" stroke-linecap="round" stroke-opacity="1" stroke-width="4.860716455299815" stroke="black" fill="black"></line><line x1="284.30358227649907" y1="203.27296383278534" x2="284.30358227649907" y2="187.15179113824956" stroke-linecap="round" stroke-opacity="1" stroke-width="4.860716455299815" stroke="black" fill="black"></line><line x1="284.30358227649907" y1="203.27296383278534" x2="284.30358227649907" y2="219.3941365273211" stroke-linecap="round" stroke-opacity="1" stroke-width="4.860716455299815" stroke="black" fill="black"></line><line x1="284.30358227649907" y1="235.51530922185688" x2="284.30358227649907" y2="219.3941365273211" stroke-linecap="round" stroke-opacity="1" stroke-width="4.860716455299815" stroke="black" fill="black"></line><line x1="284.30358227649907" y1="235.51530922185688" x2="284.30358227649907" y2="251.63648191639265" stroke-linecap="round" stroke-opacity="1" stroke-width="4.860716455299815" stroke="black" fill="black"></line><line x1="284.30358227649907" y1="267.7576546109284" x2="284.30358227649907" y2="251.63648191639265" stroke-linecap="round" stroke-opacity="1" stroke-width="4.860716455299815" stroke="black" fill="black"></line><line x1="284.30358227649907" y1="267.7576546109284" x2="284.30358227649907" y2="283.8788273054642" stroke-linecap="round" stroke-opacity="1" stroke-width="4.860716455299815" stroke="black" fill="black"></line><line x1="284.30358227649907" y1="300" x2="284.30358227649907" y2="283.8788273054642" stroke-linecap="round" stroke-opacity="1" stroke-width="4.860716455299815" stroke="black" fill="black"></line><line x1="284.30358227649907" y1="300" x2="284.30358227649907" y2="316.12117269453574" stroke-linecap="round" stroke-opacity="1" stroke-width="4.860716455299815" stroke="black" fill="black"></line><line x1="284.30358227649907" y1="332.24234538907155" x2="284.30358227649907" y2="316.12117269453574" stroke-linecap="round" stroke-opacity="1" stroke-width="4.860716455299815" stroke="black" fill="black"></line><line x1="284.30358227649907" y1="332.24234538907155" x2="284.30358227649907" y2="348.36351808360735" stroke-linecap="round" stroke-opacity="1" stroke-width="4.860716455299815" stroke="black" fill="black"></line><line x1="284.303582276499" y1="364.4846907781431" x2="284.30358227649907" y2="348.36351808360735" stroke-linecap="round" stroke-opacity="1" stroke-width="4.860716455299815" stroke="black" fill="black"></line><line x1="284.303582276499" y1="364.4846907781431" x2="284.303582276499" y2="380.6058634726789" stroke-linecap="round" stroke-opacity="1" stroke-width="4.860716455299815" stroke="black" fill="black"></line><line x1="284.303582276499" y1="396.7270361672147" x2="284.303582276499" y2="380.6058634726789" stroke-linecap="round" stroke-opacity="1" stroke-width="4.860716455299815" stroke="black" fill="black"></line><line x1="284.303582276499" y1="396.7270361672147" x2="284.303582276499" y2="412.84820886175044" stroke-linecap="round" stroke-opacity="1" stroke-width="4.860716455299815" stroke="black" fill="black"></line><line x1="284.303582276499" y1="428.9693815562862" x2="284.303582276499" y2="412.84820886175044" stroke-linecap="round" stroke-opacity="1" stroke-width="4.860716455299815" stroke="black" fill="black"></line><line x1="284.303582276499" y1="428.9693815562862" x2="284.303582276499" y2="445.090554250822" stroke-linecap="round" stroke-opacity="1" stroke-width="4.860716455299815" stroke="black" fill="black"></line><line x1="284.303582276499" y1="461.2117269453578" x2="284.303582276499" y2="445.090554250822" stroke-linecap="round" stroke-opacity="1" stroke-width="4.860716455299815" stroke="black" fill="black"></line><line x1="284.303582276499" y1="461.2117269453578" x2="284.303582276499" y2="477.3328996398935" stroke-linecap="round" stroke-opacity="1" stroke-width="4.860716455299815" stroke="black" fill="black"></line><line x1="284.303582276499" y1="493.4540723344293" x2="284.303582276499" y2="477.3328996398935" stroke-linecap="round" stroke-opacity="1" stroke-width="4.860716455299815" stroke="black" fill="black"></line><line x1="284.303582276499" y1="493.4540723344293" x2="284.303582276499" y2="509.5752450289651" stroke-linecap="round" stroke-opacity="1" stroke-width="4.860716455299815" stroke="black" fill="black"></line><line x1="284.303582276499" y1="525.6964177235009" x2="284.303582276499" y2="509.5752450289651" stroke-linecap="round" stroke-opacity="1" stroke-width="4.860716455299815" stroke="black" fill="black"></line><line x1="284.303582276499" y1="525.6964177235009" x2="284.303582276499" y2="525.6964177235009" stroke-linecap="round" stroke-opacity="1" stroke-width="4.860716455299815" stroke="black" fill="black"></line></g><g></g><g id="letters"></g><g id="strands"></g><g></g><g></g><g></g><g></g><g></g><g></g><g></g><g></g><g></g><g></g><g></g><g></g><g></g><g></g><g></g><g></g><g></g><g></g><g></g><g></g><g></g><g></g><g></g><g></g><g></g><g></g><g></g><g></g><g></g><g><rect width="15" height="15" fill="#900c00" x="530" y="50"></rect><rect width="15" height="15" fill="#900c00" x="530" y="55"></rect><rect width="15" height="15" fill="#920c00" x="530" y="60"></rect><rect width="15" height="15" fill="#950c00" x="530" y="65"></rect><rect width="15" height="15" fill="#980e00" x="530" y="70"></rect><rect width="15" height="15" fill="#9d1000" x="530" y="75"></rect><rect width="15" height="15" fill="#a21202" x="530" y="80"></rect><rect width="15" height="15" fill="#a71503" x="530" y="85"></rect><rect width="15" height="15" fill="#ad1905" x="530" y="90"></rect><rect width="15" height="15" fill="#b41d07" x="530" y="95"></rect><rect width="15" height="15" fill="#ba2208" x="530" y="100"></rect><rect width="15" height="15" fill="#c1260a" x="530" y="105"></rect><rect width="15" height="15" fill="#c72c0c" x="530" y="110"></rect><rect width="15" height="15" fill="#ce310d" x="530" y="115"></rect><rect width="15" height="15" fill="#d5370f" x="530" y="120"></rect><rect width="15" height="15" fill="#db3d11" x="530" y="125"></rect><rect width="15" height="15" fill="#e14412" x="530" y="130"></rect><rect width="15" height="15" fill="#e74a13" x="530" y="135"></rect><rect width="15" height="15" fill="#ec5115" x="530" y="140"></rect><rect width="15" height="15" fill="#f15816" x="530" y="145"></rect><rect width="15" height="15" fill="#f65f18" x="530" y="150"></rect><rect width="15" height="15" fill="#fa6619" x="530" y="155"></rect><rect width="15" height="15" fill="#fd6d1a" x="530" y="160"></rect><rect width="15" height="15" fill="#ff741b" x="530" y="165"></rect><rect width="15" height="15" fill="#ff7b1c" x="530" y="170"></rect><rect width="15" height="15" fill="#ff821d" x="530" y="175"></rect><rect width="15" height="15" fill="#ff891e" x="530" y="180"></rect><rect width="15" height="15" fill="#ff9020" x="530" y="185"></rect><rect width="15" height="15" fill="#ff9721" x="530" y="190"></rect><rect width="15" height="15" fill="#ff9e22" x="530" y="195"></rect><rect width="15" height="15" fill="#ffa423" x="530" y="200"></rect><rect width="15" height="15" fill="#ffab24" x="530" y="205"></rect><rect width="15" height="15" fill="#ffb125" x="530" y="210"></rect><rect width="15" height="15" fill="#ffb727" x="530" y="215"></rect><rect width="15" height="15" fill="#fcbd28" x="530" y="220"></rect><rect width="15" height="15" fill="#f8c32a" x="530" y="225"></rect><rect width="15" height="15" fill="#f4c92b" x="530" y="230"></rect><rect width="15" height="15" fill="#efce2d" x="530" y="235"></rect><rect width="15" height="15" fill="#ead32e" x="530" y="240"></rect><rect width="15" height="15" fill="#e4d830" x="530" y="245"></rect><rect width="15" height="15" fill="#dedd32" x="530" y="250"></rect><rect width="15" height="15" fill="#d8e135" x="530" y="255"></rect><rect width="15" height="15" fill="#d1e537" x="530" y="260"></rect><rect width="15" height="15" fill="#cae93a" x="530" y="265"></rect><rect width="15" height="15" fill="#c3ec3c" x="530" y="270"></rect><rect width="15" height="15" fill="#bbf03f" x="530" y="275"></rect><rect width="15" height="15" fill="#b4f242" x="530" y="280"></rect><rect width="15" height="15" fill="#acf545" x="530" y="285"></rect><rect width="15" height="15" fill="#a4f749" x="530" y="290"></rect><rect width="15" height="15" fill="#9cf94d" x="530" y="295"></rect><rect width="15" height="15" fill="#95fb51" x="530" y="300"></rect><rect width="15" height="15" fill="#8dfc55" x="530" y="305"></rect><rect width="15" height="15" fill="#85fd59" x="530" y="310"></rect><rect width="15" height="15" fill="#7dfd5e" x="530" y="315"></rect><rect width="15" height="15" fill="#76fe63" x="530" y="320"></rect><rect width="15" height="15" fill="#6efe68" x="530" y="325"></rect><rect width="15" height="15" fill="#67fd6d" x="530" y="330"></rect><rect width="15" height="15" fill="#60fc72" x="530" y="335"></rect><rect width="15" height="15" fill="#59fb78" x="530" y="340"></rect><rect width="15" height="15" fill="#53fa7e" x="530" y="345"></rect><rect width="15" height="15" fill="#4df884" x="530" y="350"></rect><rect width="15" height="15" fill="#47f68a" x="530" y="355"></rect><rect width="15" height="15" fill="#42f490" x="530" y="360"></rect><rect width="15" height="15" fill="#3df196" x="530" y="365"></rect><rect width="15" height="15" fill="#38ee9d" x="530" y="370"></rect><rect width="15" height="15" fill="#34eba3" x="530" y="375"></rect><rect width="15" height="15" fill="#31e8aa" x="530" y="380"></rect><rect width="15" height="15" fill="#2de4b0" x="530" y="385"></rect><rect width="15" height="15" fill="#2be0b7" x="530" y="390"></rect><rect width="15" height="15" fill="#29dbbd" x="530" y="395"></rect><rect width="15" height="15" fill="#27d7c4" x="530" y="400"></rect><rect width="15" height="15" fill="#26d2ca" x="530" y="405"></rect><rect width="15" height="15" fill="#25cdd0" x="530" y="410"></rect><rect width="15" height="15" fill="#25c7d6" x="530" y="415"></rect><rect width="15" height="15" fill="#25c2dc" x="530" y="420"></rect><rect width="15" height="15" fill="#26bce1" x="530" y="425"></rect><rect width="15" height="15" fill="#27b6e6" x="530" y="430"></rect><rect width="15" height="15" fill="#29b0eb" x="530" y="435"></rect><rect width="15" height="15" fill="#2aaaef" x="530" y="440"></rect><rect width="15" height="15" fill="#2da4f2" x="530" y="445"></rect><rect width="15" height="15" fill="#2f9df5" x="530" y="450"></rect><rect width="15" height="15" fill="#3296f7" x="530" y="455"></rect><rect width="15" height="15" fill="#3590f8" x="530" y="460"></rect><rect width="15" height="15" fill="#3889f9" x="530" y="465"></rect><rect width="15" height="15" fill="#3b82f8" x="530" y="470"></rect><rect width="15" height="15" fill="#3e7bf7" x="530" y="475"></rect><rect width="15" height="15" fill="#4174f4" x="530" y="480"></rect><rect width="15" height="15" fill="#436df1" x="530" y="485"></rect><rect width="15" height="15" fill="#4666eb" x="530" y="490"></rect><rect width="15" height="15" fill="#485fe5" x="530" y="495"></rect><rect width="15" height="15" fill="#4a58dd" x="530" y="500"></rect><rect width="15" height="15" fill="#4b51d3" x="530" y="505"></rect><rect width="15" height="15" fill="#4b4ac7" x="530" y="510"></rect><rect width="15" height="15" fill="#4a43ba" x="530" y="515"></rect><rect width="15" height="15" fill="#493caa" x="530" y="520"></rect><rect width="15" height="15" fill="#463699" x="530" y="525"></rect><rect width="15" height="15" fill="#422f85" x="530" y="530"></rect><rect width="15" height="15" fill="#3d296e" x="530" y="535"></rect><rect width="15" height="15" fill="#362356" x="530" y="540"></rect><text font-weight="500" font-family="Avenir Next, Helvetica, Arial" font-size="13" x="547" y="61.47334098815918"><tspan dy="0" x="547">1.0</tspan></text><text font-weight="500" font-family="Avenir Next, Helvetica, Arial" font-size="13" x="547" y="111.47334098815918"><tspan dy="0" x="547">0.9</tspan></text><text font-weight="500" font-family="Avenir Next, Helvetica, Arial" font-size="13" x="547" y="161.47334098815918"><tspan dy="0" x="547">0.8</tspan></text><text font-weight="500" font-family="Avenir Next, Helvetica, Arial" font-size="13" x="547" y="211.47334098815918"><tspan dy="0" x="547">0.7</tspan></text><text font-weight="500" font-family="Avenir Next, Helvetica, Arial" font-size="13" x="547" y="261.4733409881592"><tspan dy="0" x="547">0.6</tspan></text><text font-weight="500" font-family="Avenir Next, Helvetica, Arial" font-size="13" x="547" y="311.4733409881592"><tspan dy="0" x="547">0.5</tspan></text><text font-weight="500" font-family="Avenir Next, Helvetica, Arial" font-size="13" x="547" y="361.4733409881592"><tspan dy="0" x="547">0.4</tspan></text><text font-weight="500" font-family="Avenir Next, Helvetica, Arial" font-size="13" x="547" y="411.4733409881592"><tspan dy="0" x="547">0.3</tspan></text><text font-weight="500" font-family="Avenir Next, Helvetica, Arial" font-size="13" x="547" y="461.4733409881592"><tspan dy="0" x="547">0.2</tspan></text><text font-weight="500" font-family="Avenir Next, Helvetica, Arial" font-size="13" x="547" y="511.4733409881592"><tspan dy="0" x="547">0.1</tspan></text><text font-weight="500" font-family="Avenir Next, Helvetica, Arial" font-size="13" x="547" y="561.4733409881592"><tspan dy="0" x="547">0.0</tspan></text><text font-weight="500" font-family="Avenir Next, Helvetica, Arial" font-size="15" x="547" y="313.38556480407715" transform="matrix(6.123233995736766e-17,1,-1,6.123233995736766e-17,929.8689203262329,-313.29637813568115)"><tspan dy="0" x="547">Equilibrium Probability</tspan></text></g><g><text font-weight="500" font-family="Avenir Next, Helvetica, Arial" font-size="15" x="165.31419372558594" y="30.099263191223145"><tspan dy="0" x="165.31419372558594">MFE proxy structure at 30°C</tspan></text><text font-weight="500" font-family="Avenir Next, Helvetica, Arial" x="75.76423645019531" font-size="15" y="565.0992631912231"><tspan dy="0" x="75.76423645019531">Free energy of the secondary structure: -24.54 kcal/mol</tspan></text></g><g><line x1="284.303582276499" y1="525.6964177235009" x2="284.303582276499" y2="541.8988059078335" stroke-linecap="round" stroke-opacity="1" stroke-width="4.860716455299815" stroke="black"></line><line x1="284.303582276499" y1="525.6964177235009" x2="284.303582276499" y2="541.8988059078335" stroke-linecap="round" stroke-opacity="1" stroke-width="4.860716455299815" stroke="black" marker-end="url(#arrowblack)"></line><line x1="235.69641772350099" y1="74.30358227649904" x2="235.69641772350099" y2="58.10119409216634" stroke-linecap="round" stroke-opacity="1" stroke-width="4.860716455299815" stroke="black"></line><line x1="235.69641772350099" y1="74.30358227649904" x2="235.69641772350099" y2="58.10119409216634" stroke-linecap="round" stroke-opacity="1" stroke-width="4.860716455299815" stroke="black" marker-end="url(#arrowblack)"></line></g><defs><marker markerWidth="3" markerHeight="3" refX="10" refY="10" viewBox="0 0 20 20" orient="auto" id="arrowblack" markerUnits="strokeWidth"><path d="M0 0 10 0 20 10 10 20 0 20 10 10Z" fill="black"></path></marker></defs><style>@font-face{font-family:Avenir Next, Helvetica, Arial;src:https://fonts.googleapis.com/css?family=Avenir+Next:300,400,500,600,700&amp;amp;lang=en;}</style><g></g><use xlink:href="#top"></use></svg>