<svg xmlns="http://www.w3.org/2000/svg" version="1.1" xmlns:xlink="http://www.w3.org/1999/xlink" xmlns:svgjs="http://svgjs.dev/svgjs" viewBox="0 0 650 600" width="100%"><g id="top"><g><circle r="5.568405967706718" cx="242.67997923270167" cy="514.5215823539222" fill="#fac029" stroke-width="1.8561353225689061" stroke="#fac029"></circle></g><g><circle r="5.568405967706718" cx="242.67997923270167" cy="489.89716465357685" fill="#900c00" stroke-width="1.8561353225689061" stroke="#900c00"></circle></g><g><circle r="5.568405967706718" cx="242.67997923270167" cy="465.2727469532314" fill="#900c00" stroke-width="1.8561353225689061" stroke="#900c00"></circle></g><g><circle r="5.568405967706718" cx="242.67997923270167" cy="440.648329252886" fill="#900c00" stroke-width="1.8561353225689061" stroke="#900c00"></circle></g><g><circle r="5.568405967706718" cx="242.6799792327017" cy="416.02391155254054" fill="#900c00" stroke-width="1.8561353225689061" stroke="#900c00"></circle></g><g><circle r="5.568405967706718" cx="242.6799792327017" cy="391.3994938521951" fill="#900c00" stroke-width="1.8561353225689061" stroke="#900c00"></circle></g><g><circle r="5.568405967706718" cx="242.6799792327017" cy="366.7750761518497" fill="#900c00" stroke-width="1.8561353225689061" stroke="#900c00"></circle></g><g><circle r="5.568405967706718" cx="242.6799792327017" cy="342.1506584515043" fill="#900c00" stroke-width="1.8561353225689061" stroke="#900c00"></circle></g><g><circle r="5.568405967706718" cx="242.6799792327017" cy="317.52624075115887" fill="#900c00" stroke-width="1.8561353225689061" stroke="#900c00"></circle></g><g><circle r="5.568405967706718" cx="242.6799792327017" cy="292.90182305081345" fill="#900c00" stroke-width="1.8561353225689061" stroke="#900c00"></circle></g><g><circle r="5.568405967706718" cx="242.67997923270173" cy="268.27740535046803" fill="#900c00" stroke-width="1.8561353225689061" stroke="#900c00"></circle></g><g><circle r="5.568405967706718" cx="242.67997923270173" cy="243.6529876501226" fill="#900c00" stroke-width="1.8561353225689061" stroke="#900c00"></circle></g><g><circle r="5.568405967706718" cx="242.67997923270173" cy="219.0285699497772" fill="#900c00" stroke-width="1.8561353225689061" stroke="#900c00"></circle></g><g><circle r="5.568405967706718" cx="242.67997923270173" cy="194.40415224943177" fill="#990e00" stroke-width="1.8561353225689061" stroke="#990e00"></circle></g><g><circle r="5.568405967706718" cx="242.67997923270175" cy="169.77973454908633" fill="#f8c329" stroke-width="1.8561353225689061" stroke="#f8c329"></circle></g><g><circle r="5.568405967706718" cx="217.47475199644254" cy="128.5096966563628" fill="#900c00" stroke-width="1.8561353225689061" stroke="#900c00"></circle></g><g><circle r="5.568405967706718" cx="233.479293940995" cy="96.2391198631357" fill="#900c00" stroke-width="1.8561353225689061" stroke="#900c00"></circle></g><g><circle r="5.568405967706718" cx="268.2641958961297" cy="86.88251335253713" fill="#900c00" stroke-width="1.8561353225689061" stroke="#900c00"></circle></g><g><circle r="5.568405967706718" cx="298.2982974522502" cy="106.76939931135809" fill="#900c00" stroke-width="1.8561353225689061" stroke="#900c00"></circle></g><g><circle r="5.568405967706718" cx="303.26424188986005" cy="142.44677148568005" fill="#900c00" stroke-width="1.8561353225689061" stroke="#900c00"></circle></g><g><circle r="5.568405967706718" cx="279.8026856840799" cy="169.77973454908633" fill="#f8c329" stroke-width="1.8561353225689061" stroke="#f8c329"></circle></g><g><circle r="5.568405967706718" cx="279.8026856840799" cy="194.40415224943177" fill="#990e00" stroke-width="1.8561353225689061" stroke="#990e00"></circle></g><g><circle r="5.568405967706718" cx="279.8026856840799" cy="219.0285699497772" fill="#900c00" stroke-width="1.8561353225689061" stroke="#900c00"></circle></g><g><circle r="5.568405967706718" cx="279.80268568407985" cy="243.6529876501226" fill="#900c00" stroke-width="1.8561353225689061" stroke="#900c00"></circle></g><g><circle r="5.568405967706718" cx="279.80268568407985" cy="268.27740535046803" fill="#900c00" stroke-width="1.8561353225689061" stroke="#900c00"></circle></g><g><circle r="5.568405967706718" cx="279.80268568407985" cy="292.90182305081345" fill="#900c00" stroke-width="1.8561353225689061" stroke="#900c00"></circle></g><g><circle r="5.568405967706718" cx="279.80268568407985" cy="317.52624075115887" fill="#900c00" stroke-width="1.8561353225689061" stroke="#900c00"></circle></g><g><circle r="5.568405967706718" cx="279.80268568407985" cy="342.1506584515043" fill="#900c00" stroke-width="1.8561353225689061" stroke="#900c00"></circle></g><g><circle r="5.568405967706718" cx="279.80268568407985" cy="366.7750761518497" fill="#900c00" stroke-width="1.8561353225689061" stroke="#900c00"></circle></g><g><circle r="5.568405967706718" cx="279.80268568407985" cy="391.3994938521951" fill="#900c00" stroke-width="1.8561353225689061" stroke="#900c00"></circle></g><g><circle r="5.568405967706718" cx="279.80268568407985" cy="416.02391155254054" fill="#900c00" stroke-width="1.8561353225689061" stroke="#900c00"></circle></g><g><circle r="5.568405967706718" cx="279.80268568407985" cy="440.648329252886" fill="#900c00" stroke-width="1.8561353225689061" stroke="#900c00"></circle></g><g><circle r="5.568405967706718" cx="279.80268568407985" cy="465.27274695323143" fill="#900c00" stroke-width="1.8561353225689061" stroke="#900c00"></circle></g><g><circle r="5.568405967706718" cx="279.80268568407985" cy="489.89716465357685" fill="#900c00" stroke-width="1.8561353225689061" stroke="#900c00"></circle></g><g><circle r="5.568405967706718" cx="279.80268568407985" cy="514.5215823539222" fill="#fac029" stroke-width="1.8561353225689061" stroke="#fac029"></circle></g></g><g><g><line x1="242.67997923270167" y1="514.5215823539222" x2="261.24133245839073" y2="514.5215823539222" stroke-linecap="round" stroke-width="1.8561353225689061" stroke="black" fill="black"></line><g></g></g><g></g><g><line x1="242.67997923270167" y1="489.89716465357685" x2="261.24133245839073" y2="489.89716465357685" stroke-linecap="round" stroke-width="1.8561353225689061" stroke="black" fill="black"></line><g></g></g><g></g><g><line x1="242.67997923270167" y1="465.2727469532314" x2="261.24133245839073" y2="465.2727469532314" stroke-linecap="round" stroke-width="1.8561353225689061" stroke="black" fill="black"></line><g></g></g><g></g><g><line x1="242.67997923270167" y1="440.648329252886" x2="261.24133245839073" y2="440.648329252886" stroke-linecap="round" stroke-width="1.8561353225689061" stroke="black" fill="black"></line><g></g></g><g></g><g><line x1="242.6799792327017" y1="416.02391155254054" x2="261.24133245839073" y2="416.02391155254054" stroke-linecap="round" stroke-width="1.8561353225689061" stroke="black" fill="black"></line><g></g></g><g></g><g><line x1="242.6799792327017" y1="391.3994938521951" x2="261.24133245839073" y2="391.3994938521951" stroke-linecap="round" stroke-width="1.8561353225689061" stroke="black" fill="black"></line><g></g></g><g></g><g><line x1="242.6799792327017" y1="366.7750761518497" x2="261.2413324583908" y2="366.7750761518497" stroke-linecap="round" stroke-width="1.8561353225689061" stroke="black" fill="black"></line><g></g></g><g></g><g><line x1="242.6799792327017" y1="342.1506584515043" x2="261.2413324583908" y2="342.1506584515043" stroke-linecap="round" stroke-width="1.8561353225689061" stroke="black" fill="black"></line><g></g></g><g></g><g><line x1="242.6799792327017" y1="317.52624075115887" x2="261.2413324583908" y2="317.52624075115887" stroke-linecap="round" stroke-width="1.8561353225689061" stroke="black" fill="black"></line><g></g></g><g></g><g><line x1="242.6799792327017" y1="292.90182305081345" x2="261.2413324583908" y2="292.90182305081345" stroke-linecap="round" stroke-width="1.8561353225689061" stroke="black" fill="black"></line><g></g></g><g></g><g><line x1="242.67997923270173" y1="268.27740535046803" x2="261.2413324583908" y2="268.27740535046803" stroke-linecap="round" stroke-width="1.8561353225689061" stroke="black" fill="black"></line><g></g></g><g></g><g><line x1="242.67997923270173" y1="243.6529876501226" x2="261.2413324583908" y2="243.6529876501226" stroke-linecap="round" stroke-width="1.8561353225689061" stroke="black" fill="black"></line><g></g></g><g></g><g><line x1="242.67997923270173" y1="219.0285699497772" x2="261.2413324583908" y2="219.0285699497772" stroke-linecap="round" stroke-width="1.8561353225689061" stroke="black" fill="black"></line><g></g></g><g></g><g><line x1="242.67997923270173" y1="194.40415224943177" x2="261.24133245839084" y2="194.40415224943177" stroke-linecap="round" stroke-width="1.8561353225689061" stroke="black" fill="black"></line><g></g></g><g></g><g><line x1="242.67997923270175" y1="169.77973454908633" x2="261.24133245839084" y2="169.77973454908633" stroke-linecap="round" stroke-width="1.8561353225689061" stroke="black" fill="black"></line><g></g></g><g></g><g></g><g></g><g></g><g></g><g></g><g></g><g></g><g></g><g></g><g></g><g><line x1="279.8026856840799" y1="169.77973454908633" x2="261.24133245839084" y2="169.77973454908633" stroke-linecap="round" stroke-width="1.8561353225689061" stroke="black" fill="black"></line><g></g></g><g></g><g><line x1="279.8026856840799" y1="194.40415224943177" x2="261.24133245839084" y2="194.40415224943177" stroke-linecap="round" stroke-width="1.8561353225689061" stroke="black" fill="black"></line><g></g></g><g></g><g><line x1="279.8026856840799" y1="219.0285699497772" x2="261.2413324583908" y2="219.0285699497772" stroke-linecap="round" stroke-width="1.8561353225689061" stroke="black" fill="black"></line><g></g></g><g></g><g><line x1="279.80268568407985" y1="243.6529876501226" x2="261.2413324583908" y2="243.6529876501226" stroke-linecap="round" stroke-width="1.8561353225689061" stroke="black" fill="black"></line><g></g></g><g></g><g><line x1="279.80268568407985" y1="268.27740535046803" x2="261.2413324583908" y2="268.27740535046803" stroke-linecap="round" stroke-width="1.8561353225689061" stroke="black" fill="black"></line><g></g></g><g></g><g><line x1="279.80268568407985" y1="292.90182305081345" x2="261.2413324583908" y2="292.90182305081345" stroke-linecap="round" stroke-width="1.8561353225689061" stroke="black" fill="black"></line><g></g></g><g></g><g><line x1="279.80268568407985" y1="317.52624075115887" x2="261.2413324583908" y2="317.52624075115887" stroke-linecap="round" stroke-width="1.8561353225689061" stroke="black" fill="black"></line><g></g></g><g></g><g><line x1="279.80268568407985" y1="342.1506584515043" x2="261.2413324583908" y2="342.1506584515043" stroke-linecap="round" stroke-width="1.8561353225689061" stroke="black" fill="black"></line><g></g></g><g></g><g><line x1="279.80268568407985" y1="366.7750761518497" x2="261.2413324583908" y2="366.7750761518497" stroke-linecap="round" stroke-width="1.8561353225689061" stroke="black" fill="black"></line><g></g></g><g></g><g><line x1="279.80268568407985" y1="391.3994938521951" x2="261.24133245839073" y2="391.3994938521951" stroke-linecap="round" stroke-width="1.8561353225689061" stroke="black" fill="black"></line><g></g></g><g></g><g><line x1="279.80268568407985" y1="416.02391155254054" x2="261.24133245839073" y2="416.02391155254054" stroke-linecap="round" stroke-width="1.8561353225689061" stroke="black" fill="black"></line><g></g></g><g></g><g><line x1="279.80268568407985" y1="440.648329252886" x2="261.24133245839073" y2="440.648329252886" stroke-linecap="round" stroke-width="1.8561353225689061" stroke="black" fill="black"></line><g></g></g><g></g><g><line x1="279.80268568407985" y1="465.27274695323143" x2="261.24133245839073" y2="465.2727469532314" stroke-linecap="round" stroke-width="1.8561353225689061" stroke="black" fill="black"></line><g></g></g><g></g><g><line x1="279.80268568407985" y1="489.89716465357685" x2="261.24133245839073" y2="489.89716465357685" stroke-linecap="round" stroke-width="1.8561353225689061" stroke="black" fill="black"></line><g></g></g><g></g><g><line x1="279.80268568407985" y1="514.5215823539222" x2="261.24133245839073" y2="514.5215823539222" stroke-linecap="round" stroke-width="1.8561353225689061" stroke="black" fill="black"></line><g></g></g><g></g></g><g><line x1="242.67997923270167" y1="514.5215823539222" x2="242.67997923270167" y2="514.5215823539222" stroke-linecap="round" stroke-opacity="1" stroke-width="3.7122706451378122" stroke="black" fill="black"></line><line x1="242.67997923270167" y1="514.5215823539222" x2="242.67997923270167" y2="502.20937350374953" stroke-linecap="round" stroke-opacity="1" stroke-width="3.7122706451378122" stroke="black" fill="black"></line><line x1="242.67997923270167" y1="489.89716465357685" x2="242.67997923270167" y2="502.20937350374953" stroke-linecap="round" stroke-opacity="1" stroke-width="3.7122706451378122" stroke="black" fill="black"></line><line x1="242.67997923270167" y1="489.89716465357685" x2="242.67997923270167" y2="477.5849558034041" stroke-linecap="round" stroke-opacity="1" stroke-width="3.7122706451378122" stroke="black" fill="black"></line><line x1="242.67997923270167" y1="465.2727469532314" x2="242.67997923270167" y2="477.5849558034041" stroke-linecap="round" stroke-opacity="1" stroke-width="3.7122706451378122" stroke="black" fill="black"></line><line x1="242.67997923270167" y1="465.2727469532314" x2="242.67997923270167" y2="452.9605381030587" stroke-linecap="round" stroke-opacity="1" stroke-width="3.7122706451378122" stroke="black" fill="black"></line><line x1="242.67997923270167" y1="440.648329252886" x2="242.67997923270167" y2="452.9605381030587" stroke-linecap="round" stroke-opacity="1" stroke-width="3.7122706451378122" stroke="black" fill="black"></line><line x1="242.67997923270167" y1="440.648329252886" x2="242.6799792327017" y2="428.3361204027133" stroke-linecap="round" stroke-opacity="1" stroke-width="3.7122706451378122" stroke="black" fill="black"></line><line x1="242.6799792327017" y1="416.02391155254054" x2="242.6799792327017" y2="428.3361204027133" stroke-linecap="round" stroke-opacity="1" stroke-width="3.7122706451378122" stroke="black" fill="black"></line><line x1="242.6799792327017" y1="416.02391155254054" x2="242.6799792327017" y2="403.7117027023678" stroke-linecap="round" stroke-opacity="1" stroke-width="3.7122706451378122" stroke="black" fill="black"></line><line x1="242.6799792327017" y1="391.3994938521951" x2="242.6799792327017" y2="403.7117027023678" stroke-linecap="round" stroke-opacity="1" stroke-width="3.7122706451378122" stroke="black" fill="black"></line><line x1="242.6799792327017" y1="391.3994938521951" x2="242.6799792327017" y2="379.08728500202244" stroke-linecap="round" stroke-opacity="1" stroke-width="3.7122706451378122" stroke="black" fill="black"></line><line x1="242.6799792327017" y1="366.7750761518497" x2="242.6799792327017" y2="379.08728500202244" stroke-linecap="round" stroke-opacity="1" stroke-width="3.7122706451378122" stroke="black" fill="black"></line><line x1="242.6799792327017" y1="366.7750761518497" x2="242.6799792327017" y2="354.46286730167697" stroke-linecap="round" stroke-opacity="1" stroke-width="3.7122706451378122" stroke="black" fill="black"></line><line x1="242.6799792327017" y1="342.1506584515043" x2="242.6799792327017" y2="354.46286730167697" stroke-linecap="round" stroke-opacity="1" stroke-width="3.7122706451378122" stroke="black" fill="black"></line><line x1="242.6799792327017" y1="342.1506584515043" x2="242.6799792327017" y2="329.83844960133155" stroke-linecap="round" stroke-opacity="1" stroke-width="3.7122706451378122" stroke="black" fill="black"></line><line x1="242.6799792327017" y1="317.52624075115887" x2="242.6799792327017" y2="329.83844960133155" stroke-linecap="round" stroke-opacity="1" stroke-width="3.7122706451378122" stroke="black" fill="black"></line><line x1="242.6799792327017" y1="317.52624075115887" x2="242.6799792327017" y2="305.21403190098613" stroke-linecap="round" stroke-opacity="1" stroke-width="3.7122706451378122" stroke="black" fill="black"></line><line x1="242.6799792327017" y1="292.90182305081345" x2="242.6799792327017" y2="305.21403190098613" stroke-linecap="round" stroke-opacity="1" stroke-width="3.7122706451378122" stroke="black" fill="black"></line><line x1="242.6799792327017" y1="292.90182305081345" x2="242.67997923270173" y2="280.58961420064077" stroke-linecap="round" stroke-opacity="1" stroke-width="3.7122706451378122" stroke="black" fill="black"></line><line x1="242.67997923270173" y1="268.27740535046803" x2="242.67997923270173" y2="280.58961420064077" stroke-linecap="round" stroke-opacity="1" stroke-width="3.7122706451378122" stroke="black" fill="black"></line><line x1="242.67997923270173" y1="268.27740535046803" x2="242.67997923270173" y2="255.96519650029532" stroke-linecap="round" stroke-opacity="1" stroke-width="3.7122706451378122" stroke="black" fill="black"></line><line x1="242.67997923270173" y1="243.6529876501226" x2="242.67997923270173" y2="255.96519650029532" stroke-linecap="round" stroke-opacity="1" stroke-width="3.7122706451378122" stroke="black" fill="black"></line><line x1="242.67997923270173" y1="243.6529876501226" x2="242.67997923270173" y2="231.3407787999499" stroke-linecap="round" stroke-opacity="1" stroke-width="3.7122706451378122" stroke="black" fill="black"></line><line x1="242.67997923270173" y1="219.0285699497772" x2="242.67997923270173" y2="231.3407787999499" stroke-linecap="round" stroke-opacity="1" stroke-width="3.7122706451378122" stroke="black" fill="black"></line><line x1="242.67997923270173" y1="219.0285699497772" x2="242.67997923270173" y2="206.71636109960448" stroke-linecap="round" stroke-opacity="1" stroke-width="3.7122706451378122" stroke="black" fill="black"></line><line x1="242.67997923270173" y1="194.40415224943177" x2="242.67997923270173" y2="206.71636109960448" stroke-linecap="round" stroke-opacity="1" stroke-width="3.7122706451378122" stroke="black" fill="black"></line><line x1="242.67997923270173" y1="194.40415224943177" x2="242.67997923270173" y2="182.09194339925904" stroke-linecap="round" stroke-opacity="1" stroke-width="3.7122706451378122" stroke="black" fill="black"></line><line x1="242.67997923270175" y1="169.77973454908633" x2="242.67997923270173" y2="182.09194339925904" stroke-linecap="round" stroke-opacity="1" stroke-width="3.7122706451378122" stroke="black" fill="black"></line><line x1="279.8026856840799" y1="169.77973454908633" x2="279.8026856840799" y2="182.09194339925904" stroke-linecap="round" stroke-opacity="1" stroke-width="3.7122706451378122" stroke="black" fill="black"></line><line x1="279.8026856840799" y1="194.40415224943177" x2="279.8026856840799" y2="182.09194339925904" stroke-linecap="round" stroke-opacity="1" stroke-width="3.7122706451378122" stroke="black" fill="black"></line><line x1="279.8026856840799" y1="194.40415224943177" x2="279.8026856840799" y2="206.71636109960448" stroke-linecap="round" stroke-opacity="1" stroke-width="3.7122706451378122" stroke="black" fill="black"></line><line x1="279.8026856840799" y1="219.0285699497772" x2="279.8026856840799" y2="206.71636109960448" stroke-linecap="round" stroke-opacity="1" stroke-width="3.7122706451378122" stroke="black" fill="black"></line><line x1="279.8026856840799" y1="219.0285699497772" x2="279.8026856840799" y2="231.3407787999499" stroke-linecap="round" stroke-opacity="1" stroke-width="3.7122706451378122" stroke="black" fill="black"></line><line x1="279.80268568407985" y1="243.6529876501226" x2="279.8026856840799" y2="231.3407787999499" stroke-linecap="round" stroke-opacity="1" stroke-width="3.7122706451378122" stroke="black" fill="black"></line><line x1="279.80268568407985" y1="243.6529876501226" x2="279.80268568407985" y2="255.96519650029532" stroke-linecap="round" stroke-opacity="1" stroke-width="3.7122706451378122" stroke="black" fill="black"></line><line x1="279.80268568407985" y1="268.27740535046803" x2="279.80268568407985" y2="255.96519650029532" stroke-linecap="round" stroke-opacity="1" stroke-width="3.7122706451378122" stroke="black" fill="black"></line><line x1="279.80268568407985" y1="268.27740535046803" x2="279.80268568407985" y2="280.58961420064077" stroke-linecap="round" stroke-opacity="1" stroke-width="3.7122706451378122" stroke="black" fill="black"></line><line x1="279.80268568407985" y1="292.90182305081345" x2="279.80268568407985" y2="280.58961420064077" stroke-linecap="round" stroke-opacity="1" stroke-width="3.7122706451378122" stroke="black" fill="black"></line><line x1="279.80268568407985" y1="292.90182305081345" x2="279.80268568407985" y2="305.21403190098613" stroke-linecap="round" stroke-opacity="1" stroke-width="3.7122706451378122" stroke="black" fill="black"></line><line x1="279.80268568407985" y1="317.52624075115887" x2="279.80268568407985" y2="305.21403190098613" stroke-linecap="round" stroke-opacity="1" stroke-width="3.7122706451378122" stroke="black" fill="black"></line><line x1="279.80268568407985" y1="317.52624075115887" x2="279.80268568407985" y2="329.83844960133155" stroke-linecap="round" stroke-opacity="1" stroke-width="3.7122706451378122" stroke="black" fill="black"></line><line x1="279.80268568407985" y1="342.1506584515043" x2="279.80268568407985" y2="329.83844960133155" stroke-linecap="round" stroke-opacity="1" stroke-width="3.7122706451378122" stroke="black" fill="black"></line><line x1="279.80268568407985" y1="342.1506584515043" x2="279.80268568407985" y2="354.462867301677" stroke-linecap="round" stroke-opacity="1" stroke-width="3.7122706451378122" stroke="black" fill="black"></line><line x1="279.80268568407985" y1="366.7750761518497" x2="279.80268568407985" y2="354.462867301677" stroke-linecap="round" stroke-opacity="1" stroke-width="3.7122706451378122" stroke="black" fill="black"></line><line x1="279.80268568407985" y1="366.7750761518497" x2="279.80268568407985" y2="379.08728500202244" stroke-linecap="round" stroke-opacity="1" stroke-width="3.7122706451378122" stroke="black" fill="black"></line><line x1="279.80268568407985" y1="391.3994938521951" x2="279.80268568407985" y2="379.08728500202244" stroke-linecap="round" stroke-opacity="1" stroke-width="3.7122706451378122" stroke="black" fill="black"></line><line x1="279.80268568407985" y1="391.3994938521951" x2="279.80268568407985" y2="403.71170270236786" stroke-linecap="round" stroke-opacity="1" stroke-width="3.7122706451378122" stroke="black" fill="black"></line><line x1="279.80268568407985" y1="416.02391155254054" x2="279.80268568407985" y2="403.71170270236786" stroke-linecap="round" stroke-opacity="1" stroke-width="3.7122706451378122" stroke="black" fill="black"></line><line x1="279.80268568407985" y1="416.02391155254054" x2="279.80268568407985" y2="428.3361204027133" stroke-linecap="round" stroke-opacity="1" stroke-width="3.7122706451378122" stroke="black" fill="black"></line><line x1="279.80268568407985" y1="440.648329252886" x2="279.80268568407985" y2="428.3361204027133" stroke-linecap="round" stroke-opacity="1" stroke-width="3.7122706451378122" stroke="black" fill="black"></line><line x1="279.80268568407985" y1="440.648329252886" x2="279.80268568407985" y2="452.9605381030587" stroke-linecap="round" stroke-opacity="1" stroke-width="3.7122706451378122" stroke="black" fill="black"></line><line x1="279.80268568407985" y1="465.27274695323143" x2="279.80268568407985" y2="452.9605381030587" stroke-linecap="round" stroke-opacity="1" stroke-width="3.7122706451378122" stroke="black" fill="black"></line><line x1="279.80268568407985" y1="465.27274695323143" x2="279.80268568407985" y2="477.5849558034041" stroke-linecap="round" stroke-opacity="1" stroke-width="3.7122706451378122" stroke="black" fill="black"></line><line x1="279.80268568407985" y1="489.89716465357685" x2="279.80268568407985" y2="477.5849558034041" stroke-linecap="round" stroke-opacity="1" stroke-width="3.7122706451378122" stroke="black" fill="black"></line><line x1="279.80268568407985" y1="489.89716465357685" x2="279.80268568407985" y2="502.20937350374953" stroke-linecap="round" stroke-opacity="1" stroke-width="3.7122706451378122" stroke="black" fill="black"></line><line x1="279.80268568407985" y1="514.5215823539222" x2="279.80268568407985" y2="502.20937350374953" stroke-linecap="round" stroke-opacity="1" stroke-width="3.7122706451378122" stroke="black" fill="black"></line><line x1="279.80268568407985" y1="514.5215823539222" x2="279.80268568407985" y2="514.5215823539222" stroke-linecap="round" stroke-opacity="1" stroke-width="3.7122706451378122" stroke="black" fill="black"></line></g><g><path d="M 222.0057189814113 110.65282049194661 A 43.795888580424716 43.795888580424716 0 0 0 217.47475199644254 128.50969665636282" fill="none" stroke-linejoin="round" stroke-linecap="round" stroke-width="3.7122706451378122" stroke="black"></path><path d="M 233.479293940995 96.23911986313564 A 43.795888580424716 43.795888580424716 0 0 0 222.0057189814113 110.65282049194661" fill="none" stroke-linejoin="round" stroke-linecap="round" stroke-width="3.7122706451378122" stroke="black"></path><path d="M 249.86526692171648 87.81904993199868 A 43.795888580424716 43.795888580424716 0 0 0 233.479293940995 96.23911986313564" fill="none" stroke-linejoin="round" stroke-linecap="round" stroke-width="3.7122706451378122" stroke="black"></path><path d="M 268.2641958961297 86.88251335253713 A 43.795888580424716 43.795888580424716 0 0 0 249.86526692171648 87.81904993199868" fill="none" stroke-linejoin="round" stroke-linecap="round" stroke-width="3.7122706451378122" stroke="black"></path><path d="M 285.4204531397674 93.59522707802114 A 43.795888580424716 43.795888580424716 0 0 0 268.2641958961297 86.88251335253713" fill="none" stroke-linejoin="round" stroke-linecap="round" stroke-width="3.7122706451378122" stroke="black"></path><path d="M 298.2982974522502 106.76939931135811 A 43.795888580424716 43.795888580424716 0 0 0 285.4204531397674 93.59522707802114" fill="none" stroke-linejoin="round" stroke-linecap="round" stroke-width="3.7122706451378122" stroke="black"></path><path d="M 304.61903820797727 124.07390521210726 A 43.795888580424716 43.795888580424716 0 0 0 298.2982974522502 106.76939931135811" fill="none" stroke-linejoin="round" stroke-linecap="round" stroke-width="3.7122706451378122" stroke="black"></path><path d="M 303.26424188986005 142.44677148568005 A 43.795888580424716 43.795888580424716 0 0 0 304.61903820797727 124.07390521210726" fill="none" stroke-linejoin="round" stroke-linecap="round" stroke-width="3.7122706451378122" stroke="black"></path><path d="M 294.47363508526684 158.6369821136247 A 43.795888580424716 43.795888580424716 0 0 0 303.26424188986005 142.44677148568005" fill="none" stroke-linejoin="round" stroke-linecap="round" stroke-width="3.7122706451378122" stroke="black"></path><path d="M 279.8026856840799 169.7797345490863 A 43.795888580424716 43.795888580424716 0 0 0 294.47363508526684 158.6369821136247" fill="none" stroke-linejoin="round" stroke-linecap="round" stroke-width="3.7122706451378122" stroke="black"></path></g><g id="letters"></g><g id="strands"></g><g></g><g></g><g></g><g></g><g></g><g></g><g></g><g></g><g></g><g></g><g></g><g></g><g></g><g></g><g></g><g></g><g></g><g></g><g></g><g></g><g></g><g></g><g></g><g></g><g></g><g></g><g></g><g></g><g></g><g></g><g></g><g></g><g></g><g><rect width="15" height="15" fill="#900c00" x="530" y="50"></rect><rect width="15" height="15" fill="#900c00" x="530" y="55"></rect><rect width="15" height="15" fill="#920c00" x="530" y="60"></rect><rect width="15" height="15" fill="#950c00" x="530" y="65"></rect><rect width="15" height="15" fill="#980e00" x="530" y="70"></rect><rect width="15" height="15" fill="#9d1000" x="530" y="75"></rect><rect width="15" height="15" fill="#a21202" x="530" y="80"></rect><rect width="15" height="15" fill="#a71503" x="530" y="85"></rect><rect width="15" height="15" fill="#ad1905" x="530" y="90"></rect><rect width="15" height="15" fill="#b41d07" x="530" y="95"></rect><rect width="15" height="15" fill="#ba2208" x="530" y="100"></rect><rect width="15" height="15" fill="#c1260a" x="530" y="105"></rect><rect width="15" height="15" fill="#c72c0c" x="530" y="110"></rect><rect width="15" height="15" fill="#ce310d" x="530" y="115"></rect><rect width="15" height="15" fill="#d5370f" x="530" y="120"></rect><rect width="15" height="15" fill="#db3d11" x="530" y="125"></rect><rect width="15" height="15" fill="#e14412" x="530" y="130"></rect><rect width="15" height="15" fill="#e74a13" x="530" y="135"></rect><rect width="15" height="15" fill="#ec5115" x="530" y="140"></rect><rect width="15" height="15" fill="#f15816" x="530" y="145"></rect><rect width="15" height="15" fill="#f65f18" x="530" y="150"></rect><rect width="15" height="15" fill="#fa6619" x="530" y="155"></rect><rect width="15" height="15" fill="#fd6d1a" x="530" y="160"></rect><rect width="15" height="15" fill="#ff741b" x="530" y="165"></rect><rect width="15" height="15" fill="#ff7b1c" x="530" y="170"></rect><rect width="15" height="15" fill="#ff821d" x="530" y="175"></rect><rect width="15" height="15" fill="#ff891e" x="530" y="180"></rect><rect width="15" height="15" fill="#ff9020" x="530" y="185"></rect><rect width="15" height="15" fill="#ff9721" x="530" y="190"></rect><rect width="15" height="15" fill="#ff9e22" x="530" y="195"></rect><rect width="15" height="15" fill="#ffa423" x="530" y="200"></rect><rect width="15" height="15" fill="#ffab24" x="530" y="205"></rect><rect width="15" height="15" fill="#ffb125" x="530" y="210"></rect><rect width="15" height="15" fill="#ffb727" x="530" y="215"></rect><rect width="15" height="15" fill="#fcbd28" x="530" y="220"></rect><rect width="15" height="15" fill="#f8c32a" x="530" y="225"></rect><rect width="15" height="15" fill="#f4c92b" x="530" y="230"></rect><rect width="15" height="15" fill="#efce2d" x="530" y="235"></rect><rect width="15" height="15" fill="#ead32e" x="530" y="240"></rect><rect width="15" height="15" fill="#e4d830" x="530" y="245"></rect><rect width="15" height="15" fill="#dedd32" x="530" y="250"></rect><rect width="15" height="15" fill="#d8e135" x="530" y="255"></rect><rect width="15" height="15" fill="#d1e537" x="530" y="260"></rect><rect width="15" height="15" fill="#cae93a" x="530" y="265"></rect><rect width="15" height="15" fill="#c3ec3c" x="530" y="270"></rect><rect width="15" height="15" fill="#bbf03f" x="530" y="275"></rect><rect width="15" height="15" fill="#b4f242" x="530" y="280"></rect><rect width="15" height="15" fill="#acf545" x="530" y="285"></rect><rect width="15" height="15" fill="#a4f749" x="530" y="290"></rect><rect width="15" height="15" fill="#9cf94d" x="530" y="295"></rect><rect width="15" height="15" fill="#95fb51" x="530" y="300"></rect><rect width="15" height="15" fill="#8dfc55" x="530" y="305"></rect><rect width="15" height="15" fill="#85fd59" x="530" y="310"></rect><rect width="15" height="15" fill="#7dfd5e" x="530" y="315"></rect><rect width="15" height="15" fill="#76fe63" x="530" y="320"></rect><rect width="15" height="15" fill="#6efe68" x="530" y="325"></rect><rect width="15" height="15" fill="#67fd6d" x="530" y="330"></rect><rect width="15" height="15" fill="#60fc72" x="530" y="335"></rect><rect width="15" height="15" fill="#59fb78" x="530" y="340"></rect><rect width="15" height="15" fill="#53fa7e" x="530" y="345"></rect><rect width="15" height="15" fill="#4df884" x="530" y="350"></rect><rect width="15" height="15" fill="#47f68a" x="530" y="355"></rect><rect width="15" height="15" fill="#42f490" x="530" y="360"></rect><rect width="15" height="15" fill="#3df196" x="530" y="365"></rect><rect width="15" height="15" fill="#38ee9d" x="530" y="370"></rect><rect width="15" height="15" fill="#34eba3" x="530" y="375"></rect><rect width="15" height="15" fill="#31e8aa" x="530" y="380"></rect><rect width="15" height="15" fill="#2de4b0" x="530" y="385"></rect><rect width="15" height="15" fill="#2be0b7" x="530" y="390"></rect><rect width="15" height="15" fill="#29dbbd" x="530" y="395"></rect><rect width="15" height="15" fill="#27d7c4" x="530" y="400"></rect><rect width="15" height="15" fill="#26d2ca" x="530" y="405"></rect><rect width="15" height="15" fill="#25cdd0" x="530" y="410"></rect><rect width="15" height="15" fill="#25c7d6" x="530" y="415"></rect><rect width="15" height="15" fill="#25c2dc" x="530" y="420"></rect><rect width="15" height="15" fill="#26bce1" x="530" y="425"></rect><rect width="15" height="15" fill="#27b6e6" x="530" y="430"></rect><rect width="15" height="15" fill="#29b0eb" x="530" y="435"></rect><rect width="15" height="15" fill="#2aaaef" x="530" y="440"></rect><rect width="15" height="15" fill="#2da4f2" x="530" y="445"></rect><rect width="15" height="15" fill="#2f9df5" x="530" y="450"></rect><rect width="15" height="15" fill="#3296f7" x="530" y="455"></rect><rect width="15" height="15" fill="#3590f8" x="530" y="460"></rect><rect width="15" height="15" fill="#3889f9" x="530" y="465"></rect><rect width="15" height="15" fill="#3b82f8" x="530" y="470"></rect><rect width="15" height="15" fill="#3e7bf7" x="530" y="475"></rect><rect width="15" height="15" fill="#4174f4" x="530" y="480"></rect><rect width="15" height="15" fill="#436df1" x="530" y="485"></rect><rect width="15" height="15" fill="#4666eb" x="530" y="490"></rect><rect width="15" height="15" fill="#485fe5" x="530" y="495"></rect><rect width="15" height="15" fill="#4a58dd" x="530" y="500"></rect><rect width="15" height="15" fill="#4b51d3" x="530" y="505"></rect><rect width="15" height="15" fill="#4b4ac7" x="530" y="510"></rect><rect width="15" height="15" fill="#4a43ba" x="530" y="515"></rect><rect width="15" height="15" fill="#493caa" x="530" y="520"></rect><rect width="15" height="15" fill="#463699" x="530" y="525"></rect><rect width="15" height="15" fill="#422f85" x="530" y="530"></rect><rect width="15" height="15" fill="#3d296e" x="530" y="535"></rect><rect width="15" height="15" fill="#362356" x="530" y="540"></rect><text font-weight="500" font-family="Avenir Next, Helvetica, Arial" font-size="13" x="547" y="61.47334098815918"><tspan dy="0" x="547">1.0</tspan></text><text font-weight="500" font-family="Avenir Next, Helvetica, Arial" font-size="13" x="547" y="111.47334098815918"><tspan dy="0" x="547">0.9</tspan></text><text font-weight="500" font-family="Avenir Next, Helvetica, Arial" font-size="13" x="547" y="161.47334098815918"><tspan dy="0" x="547">0.8</tspan></text><text font-weight="500" font-family="Avenir Next, Helvetica, Arial" font-size="13" x="547" y="211.47334098815918"><tspan dy="0" x="547">0.7</tspan></text><text font-weight="500" font-family="Avenir Next, Helvetica, Arial" font-size="13" x="547" y="261.4733409881592"><tspan dy="0" x="547">0.6</tspan></text><text font-weight="500" font-family="Avenir Next, Helvetica, Arial" font-size="13" x="547" y="311.4733409881592"><tspan dy="0" x="547">0.5</tspan></text><text font-weight="500" font-family="Avenir Next, Helvetica, Arial" font-size="13" x="547" y="361.4733409881592"><tspan dy="0" x="547">0.4</tspan></text><text font-weight="500" font-family="Avenir Next, Helvetica, Arial" font-size="13" x="547" y="411.4733409881592"><tspan dy="0" x="547">0.3</tspan></text><text font-weight="500" font-family="Avenir Next, Helvetica, Arial" font-size="13" x="547" y="461.4733409881592"><tspan dy="0" x="547">0.2</tspan></text><text font-weight="500" font-family="Avenir Next, Helvetica, Arial" font-size="13" x="547" y="511.4733409881592"><tspan dy="0" x="547">0.1</tspan></text><text font-weight="500" font-family="Avenir Next, Helvetica, Arial" font-size="13" x="547" y="561.4733409881592"><tspan dy="0" x="547">0.0</tspan></text><text font-weight="500" font-family="Avenir Next, Helvetica, Arial" font-size="15" x="547" y="313.38556480407715" transform="matrix(6.123233995736766e-17,1,-1,6.123233995736766e-17,929.8689203262329,-313.29637813568115)"><tspan dy="0" x="547">Equilibrium Probability</tspan></text></g><g><text font-weight="500" font-family="Avenir Next, Helvetica, Arial" font-size="15" x="165.31419372558594" y="30.099263191223145"><tspan dy="0" x="165.31419372558594">MFE proxy structure at 30°C</tspan></text><text font-weight="500" font-family="Avenir Next, Helvetica, Arial" x="75.76423645019531" font-size="15" y="565.0992631912231"><tspan dy="0" x="75.76423645019531">Free energy of the secondary structure: -25.17 kcal/mol</tspan></text></g><g><line x1="279.80268568407985" y1="514.5215823539222" x2="279.80268568407985" y2="526.895817837715" stroke-linecap="round" stroke-opacity="1" stroke-width="3.7122706451378122" stroke="black"></line><line x1="279.80268568407985" y1="514.5215823539222" x2="279.80268568407985" y2="526.895817837715" stroke-linecap="round" stroke-opacity="1" stroke-width="3.7122706451378122" stroke="black" marker-end="url(#arrowblack)"></line><line x1="242.67997923270175" y1="169.77973454908633" x2="242.67997923270175" y2="157.40549906529364" stroke-linecap="round" stroke-opacity="1" stroke-width="3.7122706451378122" stroke="black"></line><line x1="242.67997923270175" y1="169.77973454908633" x2="242.67997923270175" y2="157.40549906529364" stroke-linecap="round" stroke-opacity="1" stroke-width="3.7122706451378122" stroke="black" marker-end="url(#arrowblack)"></line></g><defs><marker markerWidth="3" markerHeight="3" refX="10" refY="10" viewBox="0 0 20 20" orient="auto" id="arrowblack" markerUnits="strokeWidth"><path d="M0 0 10 0 20 10 10 20 0 20 10 10Z" fill="black"></path></marker></defs><style>@font-face{font-family:Avenir Next, Helvetica, Arial;src:https://fonts.googleapis.com/css?family=Avenir+Next:300,400,500,600,700&amp;amp;lang=en;}</style><g></g><use xlink:href="#top"></use></svg>