<svg xmlns="http://www.w3.org/2000/svg" version="1.1" xmlns:xlink="http://www.w3.org/1999/xlink" xmlns:svgjs="http://svgjs.dev/svgjs" viewBox="0 0 650 600" width="100%"><g id="top"><g><circle r="6.734209245472777" cx="292.9713660343395" cy="514.7902274380889" fill="#900c00" stroke-width="2.244736415157593" stroke="#900c00"></circle></g><g><circle r="6.734209245472777" cx="296.9029249976112" cy="473.6610053846838" fill="#b1f444" stroke-width="2.244736415157593" stroke="#b1f444"></circle></g><g><circle r="6.734209245472777" cx="296.9029249976112" cy="443.8812116153831" fill="#e3d931" stroke-width="2.244736415157593" stroke="#e3d931"></circle></g><g><circle r="6.734209245472777" cx="296.9029249976112" cy="414.1014178460824" fill="#e0db32" stroke-width="2.244736415157593" stroke="#e0db32"></circle></g><g><circle r="6.734209245472777" cx="284.24368032258843" cy="373.8840568232254" fill="#d93c10" stroke-width="2.244736415157593" stroke="#d93c10"></circle></g><g><circle r="6.734209245472777" cx="267.1861410552415" cy="349.473475693621" fill="#900c00" stroke-width="2.244736415157593" stroke="#900c00"></circle></g><g><circle r="6.734209245472777" cx="250.1286017878945" cy="325.0628945640167" fill="#900c00" stroke-width="2.244736415157593" stroke="#900c00"></circle></g><g><circle r="6.734209245472777" cx="233.0710625205475" cy="300.65231343441235" fill="#900c00" stroke-width="2.244736415157593" stroke="#900c00"></circle></g><g><circle r="6.734209245472777" cx="216.01352325320056" cy="276.2417323048079" fill="#900c00" stroke-width="2.244736415157593" stroke="#900c00"></circle></g><g><circle r="6.734209245472777" cx="198.95598398585355" cy="251.83115117520362" fill="#d93c10" stroke-width="2.244736415157593" stroke="#d93c10"></circle></g><g><circle r="6.734209245472777" cx="165.54310202421416" cy="226.11594317677464" fill="#ff7d1d" stroke-width="2.244736415157593" stroke="#ff7d1d"></circle></g><g><circle r="6.734209245472777" cx="178.20234669923695" cy="185.89858215391763" fill="#e0db32" stroke-width="2.244736415157593" stroke="#e0db32"></circle></g><g><circle r="6.734209245472777" cx="178.20234669923695" cy="156.11878838461695" fill="#e3d931" stroke-width="2.244736415157593" stroke="#e3d931"></circle></g><g><circle r="6.734209245472777" cx="178.20234669923695" cy="126.33899461531627" fill="#b1f444" stroke-width="2.244736415157593" stroke="#b1f444"></circle></g><g><circle r="6.734209245472777" cx="174.27078773596526" cy="85.2097725619112" fill="#900c00" stroke-width="2.244736415157593" stroke="#900c00"></circle></g><g><circle r="6.734209245472777" cx="227.02863396566048" cy="85.20977256191128" fill="#900c00" stroke-width="2.244736415157593" stroke="#900c00"></circle></g><g><circle r="6.734209245472777" cx="223.09707500238878" cy="126.33899461531627" fill="#b1f444" stroke-width="2.244736415157593" stroke="#b1f444"></circle></g><g><circle r="6.734209245472777" cx="223.09707500238878" cy="156.11878838461695" fill="#e3d931" stroke-width="2.244736415157593" stroke="#e3d931"></circle></g><g><circle r="6.734209245472777" cx="223.09707500238878" cy="185.8985821539177" fill="#e0db32" stroke-width="2.244736415157593" stroke="#e0db32"></circle></g><g><circle r="6.734209245472777" cx="235.75631967741157" cy="226.11594317677464" fill="#d93c10" stroke-width="2.244736415157593" stroke="#d93c10"></circle></g><g><circle r="6.734209245472777" cx="252.81385894475852" cy="250.52652430637903" fill="#900c00" stroke-width="2.244736415157593" stroke="#900c00"></circle></g><g><circle r="6.734209245472777" cx="269.87139821210553" cy="274.93710543598337" fill="#900c00" stroke-width="2.244736415157593" stroke="#900c00"></circle></g><g><circle r="6.734209245472777" cx="286.9289374794525" cy="299.34768656558776" fill="#900c00" stroke-width="2.244736415157593" stroke="#900c00"></circle></g><g><circle r="6.734209245472777" cx="303.98647674679944" cy="323.7582676951921" fill="#900c00" stroke-width="2.244736415157593" stroke="#900c00"></circle></g><g><circle r="6.734209245472777" cx="321.04401601414645" cy="348.1688488247965" fill="#d93c10" stroke-width="2.244736415157593" stroke="#d93c10"></circle></g><g><circle r="6.734209245472777" cx="354.45689797578586" cy="373.8840568232254" fill="#ff7d1d" stroke-width="2.244736415157593" stroke="#ff7d1d"></circle></g><g><circle r="6.734209245472777" cx="341.79765330076305" cy="414.1014178460824" fill="#e0db32" stroke-width="2.244736415157593" stroke="#e0db32"></circle></g><g><circle r="6.734209245472777" cx="341.79765330076305" cy="443.8812116153831" fill="#e3d931" stroke-width="2.244736415157593" stroke="#e3d931"></circle></g><g><circle r="6.734209245472777" cx="341.79765330076305" cy="473.6610053846838" fill="#b1f444" stroke-width="2.244736415157593" stroke="#b1f444"></circle></g><g><circle r="6.734209245472777" cx="345.72921226403474" cy="514.7902274380889" fill="#900c00" stroke-width="2.244736415157593" stroke="#900c00"></circle></g></g><g><g></g><g></g><g><line x1="296.9029249976112" y1="473.6610053846838" x2="319.3502891491871" y2="473.6610053846838" stroke-linecap="round" stroke-width="2.244736415157593" stroke="black" fill="black"></line><g></g></g><g></g><g><line x1="296.9029249976112" y1="443.8812116153831" x2="319.3502891491871" y2="443.8812116153831" stroke-linecap="round" stroke-width="2.244736415157593" stroke="black" fill="black"></line><g></g></g><g></g><g><line x1="296.9029249976112" y1="414.1014178460824" x2="319.3502891491871" y2="414.1014178460824" stroke-linecap="round" stroke-width="2.244736415157593" stroke="black" fill="black"></line><g></g></g><g></g><g><line x1="284.24368032258843" y1="373.8840568232254" x2="302.6438481683674" y2="361.02645282401096" stroke-linecap="round" stroke-width="2.244736415157593" stroke="black" fill="black"></line><g></g></g><g></g><g><line x1="267.1861410552415" y1="349.473475693621" x2="285.58630890102046" y2="336.61587169440656" stroke-linecap="round" stroke-width="2.244736415157593" stroke="black" fill="black"></line><g></g></g><g></g><g><line x1="250.1286017878945" y1="325.0628945640167" x2="268.5287696336735" y2="312.2052905648022" stroke-linecap="round" stroke-width="2.244736415157593" stroke="black" fill="black"></line><g></g></g><g></g><g><line x1="233.0710625205475" y1="300.65231343441235" x2="251.47123036632652" y2="287.7947094351979" stroke-linecap="round" stroke-width="2.244736415157593" stroke="black" fill="black"></line><g></g></g><g></g><g><line x1="216.01352325320056" y1="276.2417323048079" x2="234.41369109897954" y2="263.38412830559344" stroke-linecap="round" stroke-width="2.244736415157593" stroke="black" fill="black"></line><g></g></g><g></g><g><line x1="198.95598398585355" y1="251.83115117520362" x2="217.35615183163256" y2="238.97354717598913" stroke-linecap="round" stroke-width="2.244736415157593" stroke="black" fill="black"></line><g></g></g><g></g><g></g><g></g><g><line x1="178.20234669923695" y1="185.89858215391763" x2="200.64971085081288" y2="185.89858215391763" stroke-linecap="round" stroke-width="2.244736415157593" stroke="black" fill="black"></line><g></g></g><g></g><g><line x1="178.20234669923695" y1="156.11878838461695" x2="200.64971085081288" y2="156.11878838461695" stroke-linecap="round" stroke-width="2.244736415157593" stroke="black" fill="black"></line><g></g></g><g></g><g><line x1="178.20234669923695" y1="126.33899461531627" x2="200.64971085081288" y2="126.33899461531627" stroke-linecap="round" stroke-width="2.244736415157593" stroke="black" fill="black"></line><g></g></g><g></g><g></g><g></g><g></g><g></g><g><line x1="223.09707500238878" y1="126.33899461531627" x2="200.64971085081288" y2="126.33899461531627" stroke-linecap="round" stroke-width="2.244736415157593" stroke="black" fill="black"></line><g></g></g><g></g><g><line x1="223.09707500238878" y1="156.11878838461695" x2="200.64971085081288" y2="156.11878838461695" stroke-linecap="round" stroke-width="2.244736415157593" stroke="black" fill="black"></line><g></g></g><g></g><g><line x1="223.09707500238878" y1="185.8985821539177" x2="200.64971085081288" y2="185.89858215391763" stroke-linecap="round" stroke-width="2.244736415157593" stroke="black" fill="black"></line><g></g></g><g></g><g><line x1="235.75631967741157" y1="226.11594317677464" x2="217.35615183163256" y2="238.97354717598913" stroke-linecap="round" stroke-width="2.244736415157593" stroke="black" fill="black"></line><g></g></g><g></g><g><line x1="252.81385894475852" y1="250.52652430637903" x2="234.41369109897954" y2="263.38412830559344" stroke-linecap="round" stroke-width="2.244736415157593" stroke="black" fill="black"></line><g></g></g><g></g><g><line x1="269.87139821210553" y1="274.93710543598337" x2="251.47123036632652" y2="287.7947094351979" stroke-linecap="round" stroke-width="2.244736415157593" stroke="black" fill="black"></line><g></g></g><g></g><g><line x1="286.9289374794525" y1="299.34768656558776" x2="268.5287696336735" y2="312.2052905648022" stroke-linecap="round" stroke-width="2.244736415157593" stroke="black" fill="black"></line><g></g></g><g></g><g><line x1="303.98647674679944" y1="323.7582676951921" x2="285.58630890102046" y2="336.61587169440656" stroke-linecap="round" stroke-width="2.244736415157593" stroke="black" fill="black"></line><g></g></g><g></g><g><line x1="321.04401601414645" y1="348.1688488247965" x2="302.6438481683674" y2="361.02645282401096" stroke-linecap="round" stroke-width="2.244736415157593" stroke="black" fill="black"></line><g></g></g><g></g><g></g><g></g><g><line x1="341.79765330076305" y1="414.1014178460824" x2="319.3502891491871" y2="414.1014178460824" stroke-linecap="round" stroke-width="2.244736415157593" stroke="black" fill="black"></line><g></g></g><g></g><g><line x1="341.79765330076305" y1="443.8812116153831" x2="319.3502891491871" y2="443.8812116153831" stroke-linecap="round" stroke-width="2.244736415157593" stroke="black" fill="black"></line><g></g></g><g></g><g><line x1="341.79765330076305" y1="473.6610053846838" x2="319.3502891491871" y2="473.6610053846838" stroke-linecap="round" stroke-width="2.244736415157593" stroke="black" fill="black"></line><g></g></g><g></g><g></g><g></g></g><g><line x1="296.9029249976112" y1="473.6610053846838" x2="296.9029249976112" y2="458.7711085000335" stroke-linecap="round" stroke-opacity="1" stroke-width="4.489472830315186" stroke="black" fill="black"></line><line x1="296.9029249976112" y1="443.8812116153831" x2="296.9029249976112" y2="458.7711085000335" stroke-linecap="round" stroke-opacity="1" stroke-width="4.489472830315186" stroke="black" fill="black"></line><line x1="296.9029249976112" y1="443.8812116153831" x2="296.9029249976112" y2="428.99131473073277" stroke-linecap="round" stroke-opacity="1" stroke-width="4.489472830315186" stroke="black" fill="black"></line><line x1="296.9029249976112" y1="414.1014178460824" x2="296.9029249976112" y2="428.99131473073277" stroke-linecap="round" stroke-opacity="1" stroke-width="4.489472830315186" stroke="black" fill="black"></line><line x1="284.24368032258843" y1="373.8840568232254" x2="275.714910688915" y2="361.67876625842325" stroke-linecap="round" stroke-opacity="1" stroke-width="4.489472830315186" stroke="black" fill="black"></line><line x1="267.1861410552415" y1="349.473475693621" x2="275.714910688915" y2="361.67876625842325" stroke-linecap="round" stroke-opacity="1" stroke-width="4.489472830315186" stroke="black" fill="black"></line><line x1="267.1861410552415" y1="349.473475693621" x2="258.657371421568" y2="337.26818512881886" stroke-linecap="round" stroke-opacity="1" stroke-width="4.489472830315186" stroke="black" fill="black"></line><line x1="250.1286017878945" y1="325.0628945640167" x2="258.657371421568" y2="337.26818512881886" stroke-linecap="round" stroke-opacity="1" stroke-width="4.489472830315186" stroke="black" fill="black"></line><line x1="250.1286017878945" y1="325.0628945640167" x2="241.59983215422102" y2="312.8576039992145" stroke-linecap="round" stroke-opacity="1" stroke-width="4.489472830315186" stroke="black" fill="black"></line><line x1="233.0710625205475" y1="300.65231343441235" x2="241.59983215422102" y2="312.8576039992145" stroke-linecap="round" stroke-opacity="1" stroke-width="4.489472830315186" stroke="black" fill="black"></line><line x1="233.0710625205475" y1="300.65231343441235" x2="224.54229288687404" y2="288.4470228696101" stroke-linecap="round" stroke-opacity="1" stroke-width="4.489472830315186" stroke="black" fill="black"></line><line x1="216.01352325320056" y1="276.2417323048079" x2="224.54229288687404" y2="288.4470228696101" stroke-linecap="round" stroke-opacity="1" stroke-width="4.489472830315186" stroke="black" fill="black"></line><line x1="216.01352325320056" y1="276.2417323048079" x2="207.48475361952705" y2="264.0364417400058" stroke-linecap="round" stroke-opacity="1" stroke-width="4.489472830315186" stroke="black" fill="black"></line><line x1="198.95598398585355" y1="251.83115117520362" x2="207.48475361952705" y2="264.0364417400058" stroke-linecap="round" stroke-opacity="1" stroke-width="4.489472830315186" stroke="black" fill="black"></line><line x1="178.20234669923695" y1="185.89858215391763" x2="178.20234669923695" y2="171.0086852692673" stroke-linecap="round" stroke-opacity="1" stroke-width="4.489472830315186" stroke="black" fill="black"></line><line x1="178.20234669923695" y1="156.11878838461695" x2="178.20234669923695" y2="171.0086852692673" stroke-linecap="round" stroke-opacity="1" stroke-width="4.489472830315186" stroke="black" fill="black"></line><line x1="178.20234669923695" y1="156.11878838461695" x2="178.20234669923695" y2="141.2288914999666" stroke-linecap="round" stroke-opacity="1" stroke-width="4.489472830315186" stroke="black" fill="black"></line><line x1="178.20234669923695" y1="126.33899461531627" x2="178.20234669923695" y2="141.2288914999666" stroke-linecap="round" stroke-opacity="1" stroke-width="4.489472830315186" stroke="black" fill="black"></line><line x1="223.09707500238878" y1="126.33899461531627" x2="223.09707500238878" y2="141.2288914999666" stroke-linecap="round" stroke-opacity="1" stroke-width="4.489472830315186" stroke="black" fill="black"></line><line x1="223.09707500238878" y1="156.11878838461695" x2="223.09707500238878" y2="141.2288914999666" stroke-linecap="round" stroke-opacity="1" stroke-width="4.489472830315186" stroke="black" fill="black"></line><line x1="223.09707500238878" y1="156.11878838461695" x2="223.09707500238878" y2="171.00868526926732" stroke-linecap="round" stroke-opacity="1" stroke-width="4.489472830315186" stroke="black" fill="black"></line><line x1="223.09707500238878" y1="185.8985821539177" x2="223.09707500238878" y2="171.00868526926732" stroke-linecap="round" stroke-opacity="1" stroke-width="4.489472830315186" stroke="black" fill="black"></line><line x1="235.75631967741157" y1="226.11594317677464" x2="244.28508931108504" y2="238.32123374157683" stroke-linecap="round" stroke-opacity="1" stroke-width="4.489472830315186" stroke="black" fill="black"></line><line x1="252.81385894475852" y1="250.52652430637903" x2="244.28508931108504" y2="238.32123374157683" stroke-linecap="round" stroke-opacity="1" stroke-width="4.489472830315186" stroke="black" fill="black"></line><line x1="252.81385894475852" y1="250.52652430637903" x2="261.342628578432" y2="262.7318148711812" stroke-linecap="round" stroke-opacity="1" stroke-width="4.489472830315186" stroke="black" fill="black"></line><line x1="269.87139821210553" y1="274.93710543598337" x2="261.342628578432" y2="262.7318148711812" stroke-linecap="round" stroke-opacity="1" stroke-width="4.489472830315186" stroke="black" fill="black"></line><line x1="269.87139821210553" y1="274.93710543598337" x2="278.400167845779" y2="287.14239600078554" stroke-linecap="round" stroke-opacity="1" stroke-width="4.489472830315186" stroke="black" fill="black"></line><line x1="286.9289374794525" y1="299.34768656558776" x2="278.400167845779" y2="287.14239600078554" stroke-linecap="round" stroke-opacity="1" stroke-width="4.489472830315186" stroke="black" fill="black"></line><line x1="286.9289374794525" y1="299.34768656558776" x2="295.457707113126" y2="311.55297713038993" stroke-linecap="round" stroke-opacity="1" stroke-width="4.489472830315186" stroke="black" fill="black"></line><line x1="303.98647674679944" y1="323.7582676951921" x2="295.457707113126" y2="311.55297713038993" stroke-linecap="round" stroke-opacity="1" stroke-width="4.489472830315186" stroke="black" fill="black"></line><line x1="303.98647674679944" y1="323.7582676951921" x2="312.51524638047295" y2="335.9635582599943" stroke-linecap="round" stroke-opacity="1" stroke-width="4.489472830315186" stroke="black" fill="black"></line><line x1="321.04401601414645" y1="348.1688488247965" x2="312.51524638047295" y2="335.9635582599943" stroke-linecap="round" stroke-opacity="1" stroke-width="4.489472830315186" stroke="black" fill="black"></line><line x1="341.79765330076305" y1="414.1014178460824" x2="341.79765330076305" y2="428.99131473073277" stroke-linecap="round" stroke-opacity="1" stroke-width="4.489472830315186" stroke="black" fill="black"></line><line x1="341.79765330076305" y1="443.8812116153831" x2="341.79765330076305" y2="428.99131473073277" stroke-linecap="round" stroke-opacity="1" stroke-width="4.489472830315186" stroke="black" fill="black"></line><line x1="341.79765330076305" y1="443.8812116153831" x2="341.79765330076305" y2="458.7711085000335" stroke-linecap="round" stroke-opacity="1" stroke-width="4.489472830315186" stroke="black" fill="black"></line><line x1="341.79765330076305" y1="473.6610053846838" x2="341.79765330076305" y2="458.7711085000335" stroke-linecap="round" stroke-opacity="1" stroke-width="4.489472830315186" stroke="black" fill="black"></line></g><g><path d="M 287.4300007931055 493.50800541243643 A 32.06579294658253 32.06579294658253 0 0 0 292.9713660343395 514.7902274380889" fill="none" stroke-linejoin="round" stroke-linecap="round" stroke-width="4.489472830315186" stroke="black"></path><path d="M 296.9029249976112 473.6610053846838 A 32.06579294658253 32.06579294658253 0 0 0 287.4300007931055 493.50800541243643" fill="none" stroke-linejoin="round" stroke-linecap="round" stroke-width="4.489472830315186" stroke="black"></path><path d="M 284.24368032258843 395.98511664132957 A 36.80473060049037 36.80473060049037 0 0 0 296.9029249976112 414.1014178460824" fill="none" stroke-linejoin="round" stroke-linecap="round" stroke-width="4.489472830315186" stroke="black"></path><path d="M 284.24368032258843 373.88405682322536 A 36.80473060049037 36.80473060049037 0 0 0 284.24368032258843 395.98511664132957" fill="none" stroke-linejoin="round" stroke-linecap="round" stroke-width="4.489472830315186" stroke="black"></path><path d="M 178.20234669923695 244.23224438152744 A 36.80473060049037 36.80473060049037 0 0 0 198.95598398585355 251.83115117520362" fill="none" stroke-linejoin="round" stroke-linecap="round" stroke-width="4.489472830315186" stroke="black"></path><path d="M 165.54310202421416 226.11594317677464 A 36.80473060049037 36.80473060049037 0 0 0 178.20234669923695 244.23224438152744" fill="none" stroke-linejoin="round" stroke-linecap="round" stroke-width="4.489472830315186" stroke="black"></path><path d="M 165.54310202421416 204.01488335867046 A 36.80473060049037 36.80473060049037 0 0 0 165.54310202421416 226.11594317677464" fill="none" stroke-linejoin="round" stroke-linecap="round" stroke-width="4.489472830315186" stroke="black"></path><path d="M 178.20234669923695 185.8985821539177 A 36.80473060049037 36.80473060049037 0 0 0 165.54310202421416 204.01488335867046" fill="none" stroke-linejoin="round" stroke-linecap="round" stroke-width="4.489472830315186" stroke="black"></path><path d="M 168.7294224947312 106.49199458756365 A 32.06579294658253 32.06579294658253 0 0 0 178.20234669923695 126.33899461531624" fill="none" stroke-linejoin="round" stroke-linecap="round" stroke-width="4.489472830315186" stroke="black"></path><path d="M 174.27078773596526 85.20977256191122 A 32.06579294658253 32.06579294658253 0 0 0 168.7294224947312 106.49199458756365" fill="none" stroke-linejoin="round" stroke-linecap="round" stroke-width="4.489472830315186" stroke="black"></path><path d="M 232.56999920689452 106.49199458756365 A 32.06579294658253 32.06579294658253 0 0 0 227.02863396566048 85.20977256191122" fill="none" stroke-linejoin="round" stroke-linecap="round" stroke-width="4.489472830315186" stroke="black"></path><path d="M 223.09707500238878 126.33899461531624 A 32.06579294658253 32.06579294658253 0 0 0 232.56999920689452 106.49199458756365" fill="none" stroke-linejoin="round" stroke-linecap="round" stroke-width="4.489472830315186" stroke="black"></path><path d="M 235.75631967741157 204.01488335867046 A 36.80473060049037 36.80473060049037 0 0 0 223.09707500238878 185.8985821539177" fill="none" stroke-linejoin="round" stroke-linecap="round" stroke-width="4.489472830315186" stroke="black"></path><path d="M 235.75631967741157 226.1159431767747 A 36.80473060049037 36.80473060049037 0 0 0 235.75631967741157 204.01488335867046" fill="none" stroke-linejoin="round" stroke-linecap="round" stroke-width="4.489472830315186" stroke="black"></path><path d="M 341.79765330076305 355.7677556184726 A 36.80473060049037 36.80473060049037 0 0 0 321.04401601414645 348.1688488247965" fill="none" stroke-linejoin="round" stroke-linecap="round" stroke-width="4.489472830315186" stroke="black"></path><path d="M 354.45689797578586 373.8840568232254 A 36.80473060049037 36.80473060049037 0 0 0 341.79765330076305 355.7677556184726" fill="none" stroke-linejoin="round" stroke-linecap="round" stroke-width="4.489472830315186" stroke="black"></path><path d="M 354.45689797578586 395.9851166413296 A 36.80473060049037 36.80473060049037 0 0 0 354.45689797578586 373.8840568232254" fill="none" stroke-linejoin="round" stroke-linecap="round" stroke-width="4.489472830315186" stroke="black"></path><path d="M 341.79765330076305 414.1014178460824 A 36.80473060049037 36.80473060049037 0 0 0 354.45689797578586 395.9851166413296" fill="none" stroke-linejoin="round" stroke-linecap="round" stroke-width="4.489472830315186" stroke="black"></path><path d="M 351.27057750526876 493.50800541243643 A 32.06579294658253 32.06579294658253 0 0 0 341.79765330076305 473.6610053846838" fill="none" stroke-linejoin="round" stroke-linecap="round" stroke-width="4.489472830315186" stroke="black"></path><path d="M 345.72921226403474 514.7902274380889 A 32.06579294658253 32.06579294658253 0 0 0 351.27057750526876 493.50800541243643" fill="none" stroke-linejoin="round" stroke-linecap="round" stroke-width="4.489472830315186" stroke="black"></path></g><g id="letters"></g><g id="strands"></g><g></g><g></g><g></g><g></g><g></g><g></g><g></g><g></g><g></g><g></g><g></g><g></g><g></g><g></g><g></g><g></g><g></g><g></g><g></g><g></g><g></g><g></g><g></g><g></g><g></g><g></g><g></g><g></g><g></g><g></g><g><rect width="15" height="15" fill="#900c00" x="530" y="50"></rect><rect width="15" height="15" fill="#900c00" x="530" y="55"></rect><rect width="15" height="15" fill="#920c00" x="530" y="60"></rect><rect width="15" height="15" fill="#950c00" x="530" y="65"></rect><rect width="15" height="15" fill="#980e00" x="530" y="70"></rect><rect width="15" height="15" fill="#9d1000" x="530" y="75"></rect><rect width="15" height="15" fill="#a21202" x="530" y="80"></rect><rect width="15" height="15" fill="#a71503" x="530" y="85"></rect><rect width="15" height="15" fill="#ad1905" x="530" y="90"></rect><rect width="15" height="15" fill="#b41d07" x="530" y="95"></rect><rect width="15" height="15" fill="#ba2208" x="530" y="100"></rect><rect width="15" height="15" fill="#c1260a" x="530" y="105"></rect><rect width="15" height="15" fill="#c72c0c" x="530" y="110"></rect><rect width="15" height="15" fill="#ce310d" x="530" y="115"></rect><rect width="15" height="15" fill="#d5370f" x="530" y="120"></rect><rect width="15" height="15" fill="#db3d11" x="530" y="125"></rect><rect width="15" height="15" fill="#e14412" x="530" y="130"></rect><rect width="15" height="15" fill="#e74a13" x="530" y="135"></rect><rect width="15" height="15" fill="#ec5115" x="530" y="140"></rect><rect width="15" height="15" fill="#f15816" x="530" y="145"></rect><rect width="15" height="15" fill="#f65f18" x="530" y="150"></rect><rect width="15" height="15" fill="#fa6619" x="530" y="155"></rect><rect width="15" height="15" fill="#fd6d1a" x="530" y="160"></rect><rect width="15" height="15" fill="#ff741b" x="530" y="165"></rect><rect width="15" height="15" fill="#ff7b1c" x="530" y="170"></rect><rect width="15" height="15" fill="#ff821d" x="530" y="175"></rect><rect width="15" height="15" fill="#ff891e" x="530" y="180"></rect><rect width="15" height="15" fill="#ff9020" x="530" y="185"></rect><rect width="15" height="15" fill="#ff9721" x="530" y="190"></rect><rect width="15" height="15" fill="#ff9e22" x="530" y="195"></rect><rect width="15" height="15" fill="#ffa423" x="530" y="200"></rect><rect width="15" height="15" fill="#ffab24" x="530" y="205"></rect><rect width="15" height="15" fill="#ffb125" x="530" y="210"></rect><rect width="15" height="15" fill="#ffb727" x="530" y="215"></rect><rect width="15" height="15" fill="#fcbd28" x="530" y="220"></rect><rect width="15" height="15" fill="#f8c32a" x="530" y="225"></rect><rect width="15" height="15" fill="#f4c92b" x="530" y="230"></rect><rect width="15" height="15" fill="#efce2d" x="530" y="235"></rect><rect width="15" height="15" fill="#ead32e" x="530" y="240"></rect><rect width="15" height="15" fill="#e4d830" x="530" y="245"></rect><rect width="15" height="15" fill="#dedd32" x="530" y="250"></rect><rect width="15" height="15" fill="#d8e135" x="530" y="255"></rect><rect width="15" height="15" fill="#d1e537" x="530" y="260"></rect><rect width="15" height="15" fill="#cae93a" x="530" y="265"></rect><rect width="15" height="15" fill="#c3ec3c" x="530" y="270"></rect><rect width="15" height="15" fill="#bbf03f" x="530" y="275"></rect><rect width="15" height="15" fill="#b4f242" x="530" y="280"></rect><rect width="15" height="15" fill="#acf545" x="530" y="285"></rect><rect width="15" height="15" fill="#a4f749" x="530" y="290"></rect><rect width="15" height="15" fill="#9cf94d" x="530" y="295"></rect><rect width="15" height="15" fill="#95fb51" x="530" y="300"></rect><rect width="15" height="15" fill="#8dfc55" x="530" y="305"></rect><rect width="15" height="15" fill="#85fd59" x="530" y="310"></rect><rect width="15" height="15" fill="#7dfd5e" x="530" y="315"></rect><rect width="15" height="15" fill="#76fe63" x="530" y="320"></rect><rect width="15" height="15" fill="#6efe68" x="530" y="325"></rect><rect width="15" height="15" fill="#67fd6d" x="530" y="330"></rect><rect width="15" height="15" fill="#60fc72" x="530" y="335"></rect><rect width="15" height="15" fill="#59fb78" x="530" y="340"></rect><rect width="15" height="15" fill="#53fa7e" x="530" y="345"></rect><rect width="15" height="15" fill="#4df884" x="530" y="350"></rect><rect width="15" height="15" fill="#47f68a" x="530" y="355"></rect><rect width="15" height="15" fill="#42f490" x="530" y="360"></rect><rect width="15" height="15" fill="#3df196" x="530" y="365"></rect><rect width="15" height="15" fill="#38ee9d" x="530" y="370"></rect><rect width="15" height="15" fill="#34eba3" x="530" y="375"></rect><rect width="15" height="15" fill="#31e8aa" x="530" y="380"></rect><rect width="15" height="15" fill="#2de4b0" x="530" y="385"></rect><rect width="15" height="15" fill="#2be0b7" x="530" y="390"></rect><rect width="15" height="15" fill="#29dbbd" x="530" y="395"></rect><rect width="15" height="15" fill="#27d7c4" x="530" y="400"></rect><rect width="15" height="15" fill="#26d2ca" x="530" y="405"></rect><rect width="15" height="15" fill="#25cdd0" x="530" y="410"></rect><rect width="15" height="15" fill="#25c7d6" x="530" y="415"></rect><rect width="15" height="15" fill="#25c2dc" x="530" y="420"></rect><rect width="15" height="15" fill="#26bce1" x="530" y="425"></rect><rect width="15" height="15" fill="#27b6e6" x="530" y="430"></rect><rect width="15" height="15" fill="#29b0eb" x="530" y="435"></rect><rect width="15" height="15" fill="#2aaaef" x="530" y="440"></rect><rect width="15" height="15" fill="#2da4f2" x="530" y="445"></rect><rect width="15" height="15" fill="#2f9df5" x="530" y="450"></rect><rect width="15" height="15" fill="#3296f7" x="530" y="455"></rect><rect width="15" height="15" fill="#3590f8" x="530" y="460"></rect><rect width="15" height="15" fill="#3889f9" x="530" y="465"></rect><rect width="15" height="15" fill="#3b82f8" x="530" y="470"></rect><rect width="15" height="15" fill="#3e7bf7" x="530" y="475"></rect><rect width="15" height="15" fill="#4174f4" x="530" y="480"></rect><rect width="15" height="15" fill="#436df1" x="530" y="485"></rect><rect width="15" height="15" fill="#4666eb" x="530" y="490"></rect><rect width="15" height="15" fill="#485fe5" x="530" y="495"></rect><rect width="15" height="15" fill="#4a58dd" x="530" y="500"></rect><rect width="15" height="15" fill="#4b51d3" x="530" y="505"></rect><rect width="15" height="15" fill="#4b4ac7" x="530" y="510"></rect><rect width="15" height="15" fill="#4a43ba" x="530" y="515"></rect><rect width="15" height="15" fill="#493caa" x="530" y="520"></rect><rect width="15" height="15" fill="#463699" x="530" y="525"></rect><rect width="15" height="15" fill="#422f85" x="530" y="530"></rect><rect width="15" height="15" fill="#3d296e" x="530" y="535"></rect><rect width="15" height="15" fill="#362356" x="530" y="540"></rect><text font-weight="500" font-family="Avenir Next, Helvetica, Arial" font-size="13" x="547" y="61.47334098815918"><tspan dy="0" x="547">1.0</tspan></text><text font-weight="500" font-family="Avenir Next, Helvetica, Arial" font-size="13" x="547" y="111.47334098815918"><tspan dy="0" x="547">0.9</tspan></text><text font-weight="500" font-family="Avenir Next, Helvetica, Arial" font-size="13" x="547" y="161.47334098815918"><tspan dy="0" x="547">0.8</tspan></text><text font-weight="500" font-family="Avenir Next, Helvetica, Arial" font-size="13" x="547" y="211.47334098815918"><tspan dy="0" x="547">0.7</tspan></text><text font-weight="500" font-family="Avenir Next, Helvetica, Arial" font-size="13" x="547" y="261.4733409881592"><tspan dy="0" x="547">0.6</tspan></text><text font-weight="500" font-family="Avenir Next, Helvetica, Arial" font-size="13" x="547" y="311.4733409881592"><tspan dy="0" x="547">0.5</tspan></text><text font-weight="500" font-family="Avenir Next, Helvetica, Arial" font-size="13" x="547" y="361.4733409881592"><tspan dy="0" x="547">0.4</tspan></text><text font-weight="500" font-family="Avenir Next, Helvetica, Arial" font-size="13" x="547" y="411.4733409881592"><tspan dy="0" x="547">0.3</tspan></text><text font-weight="500" font-family="Avenir Next, Helvetica, Arial" font-size="13" x="547" y="461.4733409881592"><tspan dy="0" x="547">0.2</tspan></text><text font-weight="500" font-family="Avenir Next, Helvetica, Arial" font-size="13" x="547" y="511.4733409881592"><tspan dy="0" x="547">0.1</tspan></text><text font-weight="500" font-family="Avenir Next, Helvetica, Arial" font-size="13" x="547" y="561.4733409881592"><tspan dy="0" x="547">0.0</tspan></text><text font-weight="500" font-family="Avenir Next, Helvetica, Arial" font-size="15" x="547" y="313.38556480407715" transform="matrix(6.123233995736766e-17,1,-1,6.123233995736766e-17,929.8689203262329,-313.29637813568115)"><tspan dy="0" x="547">Equilibrium Probability</tspan></text></g><g><text font-weight="500" font-family="Avenir Next, Helvetica, Arial" font-size="15" x="165.31419372558594" y="30.099263191223145"><tspan dy="0" x="165.31419372558594">MFE proxy structure at 30°C</tspan></text><text font-weight="500" font-family="Avenir Next, Helvetica, Arial" x="79.93727111816406" font-size="15" y="565.0992631912231"><tspan dy="0" x="79.93727111816406">Free energy of the secondary structure: -9.71 kcal/mol</tspan></text></g><g><line x1="345.72921226403474" y1="514.7902274380889" x2="337.22093999047786" y2="527.1011095063379" stroke-linecap="round" stroke-opacity="1" stroke-width="4.489472830315186" stroke="black"></line><line x1="345.72921226403474" y1="514.7902274380889" x2="337.22093999047786" y2="527.1011095063379" stroke-linecap="round" stroke-opacity="1" stroke-width="4.489472830315186" stroke="black" marker-end="url(#arrowblack)"></line><line x1="174.27078773596526" y1="85.2097725619112" x2="182.77906000952214" y2="72.8988904936621" stroke-linecap="round" stroke-opacity="1" stroke-width="4.489472830315186" stroke="black"></line><line x1="174.27078773596526" y1="85.2097725619112" x2="182.77906000952214" y2="72.8988904936621" stroke-linecap="round" stroke-opacity="1" stroke-width="4.489472830315186" stroke="black" marker-end="url(#arrowblack)"></line></g><defs><marker markerWidth="3" markerHeight="3" refX="10" refY="10" viewBox="0 0 20 20" orient="auto" id="arrowblack" markerUnits="strokeWidth"><path d="M0 0 10 0 20 10 10 20 0 20 10 10Z" fill="black"></path></marker></defs><style>@font-face{font-family:Avenir Next, Helvetica, Arial;src:https://fonts.googleapis.com/css?family=Avenir+Next:300,400,500,600,700&amp;amp;lang=en;}</style><g></g><use xlink:href="#top"></use></svg>