<svg xmlns="http://www.w3.org/2000/svg" version="1.1" xmlns:xlink="http://www.w3.org/1999/xlink" xmlns:svgjs="http://svgjs.com/svgjs" width="787.771" height="463.938"><defs id="SvgjsDefs1243"></defs><svg id="SvgjsSvg1244" style="overflow: visible;"><svg xmlns="http://www.w3.org/2000/svg" version="1.1" xmlns:xlink="http://www.w3.org/1999/xlink" xmlns:svgjs="http://svgjs.com/svgjs" width="587.771" height="463.938"><defs id="SvgjsDefs1163"></defs><g id="SvgjsG1164" transform="matrix(1,0,0,1,0,0)"><g id="SvgjsG1165" transform="matrix(1,0,0,1,0,0)"><text id="SvgjsText1166" font-family="Arial, Helvetica, sans-serif" font-size="16" font-weight="400" text-anchor="middle" family="Arial, Helvetica, sans-serif" size="16" weight="400" anchor="middle" transform="matrix(0,-1,1,0,0,202.6355)" svgjs:data="{&quot;leading&quot;:&quot;1.3&quot;}"><tspan id="SvgjsTspan1167" dy="20.8" x="0" svgjs:data="{&quot;newLined&quot;:true}">Concentration (nM)</tspan></text></g><g id="SvgjsG1168" transform="matrix(1,0,0,1,20,0)" width="23" height="405.271"><text id="SvgjsText1169" font-family="Arial, Helvetica, sans-serif" font-size="16px" family="Arial, Helvetica, sans-serif" size="16px" transform="matrix(1,0,0,1,0,394.77099609375)" svgjs:data="{&quot;leading&quot;:&quot;1.3&quot;}"><tspan id="SvgjsTspan1170" dy="20.8" x="0" svgjs:data="{&quot;newLined&quot;:true}">0</tspan></text><text id="SvgjsText1171" font-family="Arial, Helvetica, sans-serif" font-size="16px" family="Arial, Helvetica, sans-serif" size="16px" transform="matrix(1,0,0,1,0,313.9169921875)" svgjs:data="{&quot;leading&quot;:&quot;1.3&quot;}"><tspan id="SvgjsTspan1172" dy="20.8" x="0" svgjs:data="{&quot;newLined&quot;:true}">1</tspan></text><text id="SvgjsText1173" font-family="Arial, Helvetica, sans-serif" font-size="16px" family="Arial, Helvetica, sans-serif" size="16px" transform="matrix(1,0,0,1,0,233.06199645996094)" svgjs:data="{&quot;leading&quot;:&quot;1.3&quot;}"><tspan id="SvgjsTspan1174" dy="20.8" x="0" svgjs:data="{&quot;newLined&quot;:true}">2</tspan></text><text id="SvgjsText1175" font-family="Arial, Helvetica, sans-serif" font-size="16px" family="Arial, Helvetica, sans-serif" size="16px" transform="matrix(1,0,0,1,0,152.20799255371094)" svgjs:data="{&quot;leading&quot;:&quot;1.3&quot;}"><tspan id="SvgjsTspan1176" dy="20.8" x="0" svgjs:data="{&quot;newLined&quot;:true}">3</tspan></text><text id="SvgjsText1177" font-family="Arial, Helvetica, sans-serif" font-size="16px" family="Arial, Helvetica, sans-serif" size="16px" transform="matrix(1,0,0,1,0,71.35420227050781)" svgjs:data="{&quot;leading&quot;:&quot;1.3&quot;}"><tspan id="SvgjsTspan1178" dy="20.8" x="0" svgjs:data="{&quot;newLined&quot;:true}">4</tspan></text><text id="SvgjsText1179" font-family="Arial, Helvetica, sans-serif" font-size="16px" family="Arial, Helvetica, sans-serif" size="16px" transform="matrix(1,0,0,1,0,-9.5)" svgjs:data="{&quot;leading&quot;:&quot;1.3&quot;}"><tspan id="SvgjsTspan1180" dy="20.8" x="0" svgjs:data="{&quot;newLined&quot;:true}">5</tspan></text><path id="SvgjsPath1181" d="M22 0v405.271M22 404.271h-10M22 323.4168h-10M22 242.5626h-10M22 161.70839999999998h-10M22 80.85419999999999h-10M22 0h-10M22 397.18558h-3.3333333333333335M22 389.10016h-3.3333333333333335M22 381.01474h-3.3333333333333335M22 372.92932h-3.3333333333333335M22 364.8439h-3.3333333333333335M22 356.75848h-3.3333333333333335M22 348.67306h-3.3333333333333335M22 340.58764h-3.3333333333333335M22 332.50222h-3.3333333333333335M22 316.33137999999997h-3.3333333333333335M22 308.24595999999997h-3.3333333333333335M22 300.16053999999997h-3.3333333333333335M22 292.07511999999997h-3.3333333333333335M22 283.98969999999997h-3.3333333333333335M22 275.90427999999997h-3.3333333333333335M22 267.81886h-3.3333333333333335M22 259.73344h-3.3333333333333335M22 251.64801999999995h-3.3333333333333335M22 235.47718h-3.3333333333333335M22 227.39175999999998h-3.3333333333333335M22 219.30633999999998h-3.3333333333333335M22 211.22091999999998h-3.3333333333333335M22 203.13549999999995h-3.3333333333333335M22 195.05007999999995h-3.3333333333333335M22 186.96465999999995h-3.3333333333333335M22 178.87923999999995h-3.3333333333333335M22 170.79381999999993h-3.3333333333333335M22 154.62297999999998h-3.3333333333333335M22 146.53755999999998h-3.3333333333333335M22 138.45213999999999h-3.3333333333333335M22 130.36672h-3.3333333333333335M22 122.28129999999993h-3.3333333333333335M22 114.19587999999993h-3.3333333333333335M22 106.11045999999993h-3.3333333333333335M22 98.02503999999993h-3.3333333333333335M22 89.93961999999993h-3.3333333333333335M22 73.76877999999999h-3.3333333333333335M22 65.68336000000005h-3.3333333333333335M22 57.59794000000005h-3.3333333333333335M22 49.51252000000011h-3.3333333333333335M22 41.42710000000011h-3.3333333333333335M22 33.34168000000017h-3.3333333333333335M22 25.256260000000168h-3.3333333333333335M22 17.170840000000226h-3.3333333333333335M22 9.085420000000227h-3.3333333333333335" stroke="#000000" fill="none"></path></g></g><g id="SvgjsG1182"><g id="SvgjsG1183" transform="matrix(1,0,0,1,43,0)"><text id="SvgjsText1184" font-family="Arial, Helvetica, sans-serif" font-size="16" font-weight="400" text-anchor="middle" family="Arial, Helvetica, sans-serif" size="16" weight="400" anchor="middle" transform="matrix(1,0,0,1,0,0)" svgjs:data="{&quot;leading&quot;:&quot;1.3&quot;}"><tspan id="SvgjsTspan1185" dy="20.8" x="0" svgjs:data="{&quot;newLined&quot;:true}"></tspan></text></g></g><g id="SvgjsG1186"><g id="SvgjsG1187" transform="matrix(1,0,0,1,43,405.2713)" width="544.771" height="30"><text id="SvgjsText1188" font-family="Arial, Helvetica, sans-serif" font-size="16px" family="Arial, Helvetica, sans-serif" size="16px" transform="matrix(1,0,0,1,-4.5,10)" svgjs:data="{&quot;leading&quot;:&quot;1.3&quot;}"><tspan id="SvgjsTspan1189" dy="20.8" x="0" svgjs:data="{&quot;newLined&quot;:true}">0</tspan></text><text id="SvgjsText1190" font-family="Arial, Helvetica, sans-serif" font-size="16px" family="Arial, Helvetica, sans-serif" size="16px" transform="matrix(1,0,0,1,117.938,10)" svgjs:data="{&quot;leading&quot;:&quot;1.3&quot;}"><tspan id="SvgjsTspan1191" dy="20.8" x="0" svgjs:data="{&quot;newLined&quot;:true}">1000</tspan></text><text id="SvgjsText1192" font-family="Arial, Helvetica, sans-serif" font-size="16px" family="Arial, Helvetica, sans-serif" size="16px" transform="matrix(1,0,0,1,253.885,10)" svgjs:data="{&quot;leading&quot;:&quot;1.3&quot;}"><tspan id="SvgjsTspan1193" dy="20.8" x="0" svgjs:data="{&quot;newLined&quot;:true}">2000</tspan></text><text id="SvgjsText1194" font-family="Arial, Helvetica, sans-serif" font-size="16px" family="Arial, Helvetica, sans-serif" size="16px" transform="matrix(1,0,0,1,389.823,10)" svgjs:data="{&quot;leading&quot;:&quot;1.3&quot;}"><tspan id="SvgjsTspan1195" dy="20.8" x="0" svgjs:data="{&quot;newLined&quot;:true}">3000</tspan></text><path id="SvgjsPath1196" d="M0 0h544.771M0 0v10M135.94275 0v10M271.8855 0v10M407.82825 0v10M13.594275 0v3.3333333333333335M27.18855 0v3.3333333333333335M40.782825 0v3.3333333333333335M54.3771 0v3.3333333333333335M67.971375 0v3.3333333333333335M81.56565 0v3.3333333333333335M95.159925 0v3.3333333333333335M108.7542 0v3.3333333333333335M122.34847500000001 0v3.3333333333333335M149.537025 0v3.3333333333333335M163.1313 0v3.3333333333333335M176.725575 0v3.3333333333333335M190.31985 0v3.3333333333333335M203.914125 0v3.3333333333333335M217.5084 0v3.3333333333333335M231.102675 0v3.3333333333333335M244.69695000000002 0v3.3333333333333335M258.291225 0v3.3333333333333335M285.479775 0v3.3333333333333335M299.07405 0v3.3333333333333335M312.668325 0v3.3333333333333335M326.2626 0v3.3333333333333335M339.856875 0v3.3333333333333335M353.45115 0v3.3333333333333335M367.045425 0v3.3333333333333335M380.6397 0v3.3333333333333335M394.233975 0v3.3333333333333335M421.422525 0v3.3333333333333335M435.0168 0v3.3333333333333335M448.611075 0v3.3333333333333335M462.20535 0v3.3333333333333335M475.799625 0v3.3333333333333335M489.39390000000003 0v3.3333333333333335M502.988175 0v3.3333333333333335M516.58245 0v3.3333333333333335M530.176725 0v3.3333333333333335" stroke="#000000" fill="none"></path></g><g id="SvgjsG1197" transform="matrix(1,0,0,1,43,435.2713)"><text id="SvgjsText1198" font-family="Arial, Helvetica, sans-serif" font-size="16" font-weight="400" text-anchor="middle" family="Arial, Helvetica, sans-serif" size="16" weight="400" anchor="middle" transform="matrix(1,0,0,1,272.3855,-9.33335)" svgjs:data="{&quot;leading&quot;:&quot;1.3&quot;}"><tspan id="SvgjsTspan1199" dy="20.8" x="0" svgjs:data="{&quot;newLined&quot;:true}">Time (s)</tspan></text></g></g><g id="SvgjsG1200"></g><g id="SvgjsG1201" viewBox="0 0 544.771 405.2713" transform="matrix(1,0,0,1,43,0)"><polyline id="SvgjsPolyline1202" points="0,0 1.1742142546445862,1.0401589300838054 2.748053849423154,2.4093590330655843 4.325927885712128,3.7540518545566215 6.628832356255066,5.667773041448584 8.142799808653518,6.8952158795422065 9.65676726105197,8.099024716154076 11.170734713450424,9.279771900760068 13.256080109468202,10.86939763084689 15.341425505485981,12.41771440436787 17.42677090150376,13.92606049884472 19.51211629752154,15.39572036599185 22.546630236182093,17.467726869828198 25.581144174842642,19.464014686481107 28.615658113503198,21.387984561919666 31.65017205216375,23.242851768551986 35.34858251436339,25.414472830439706 39.04699297656304,27.493078166636963 42.74540343876268,29.483483538131793 46.44381390096233,31.390208013603115 51.02984611816785,33.64462672966329 55.61587833537337,35.78431062694466 60.20191055257889,37.81618150210414 64.78794276978441,39.746678058430916 70.06839584755241,41.851618150866955 75.34884892532041,43.838363848657536 80.6293020030884,45.71461874919743 85.90975508085639,47.48752206445846 91.85625512682569,49.368438588489255 97.80275517279499,51.135132335544256 103.74925521876429,52.79548244693183 109.69575526473358,54.356776658556896 115.98165700654124,55.90680924602378 122.26755874834889,57.360762498873555 128.55346049015657,58.72526381038705 134.83936223196423,60.00645709540515 141.5323358392431,61.28530777581864 148.225309446522,62.48226856464038 154.9182830538009,63.603064592629266 161.61125666107978,64.65301099690726 168.53485618738455,65.66971607062482 175.45845571368935,66.62071933358612 182.38205523999412,67.51057891253436 189.3056547662989,68.3435381199896 196.47682136787884,69.15040778712648 203.64798796945874,69.90435805475659 210.8191545710387,70.60906111564805 217.99032117261865,71.26794258165103 225.31486628032948,71.89685446378815 232.63941138804034,72.48430916362287 239.9639564957512,73.0331630345596 247.28850160346204,73.54608660706168 254.76310500215018,74.03500233274309 262.23770840083824,74.49144844098186 269.71231179952633,74.91765625258029 277.1869151982145,75.3157154974785 284.87740454546184,75.69790028475137 292.56789389270915,76.05424390665974 300.25838323995646,76.38653950249744 307.94887258720377,76.69646780639653 316.1082880240076,77.00254788292688 324.26770346081145,77.28688123386178 332.42711889761534,77.55104252558198 340.5865343344192,77.7965062227716 349.1383614800441,78.03516528779818 357.69018862566907,78.2561893783274 366.24201577129395,78.46089903530913 374.79384291691895,78.65052995799971 383.8904396792951,78.83694167500676 392.9870364416713,79.00880483095682 402.08363320404754,79.16726467007624 411.1802299664237,79.31339120799356 420.8118872543275,79.45573689750506 430.4435445422312,79.58638952217802 440.07520183013486,79.70631420751675 449.7068591180386,79.81641136881547 459.99054829923574,79.92401908507082 470.2742374804328,80.02224129400679 480.55792666162995,80.11189785842515 490.8416158428271,80.19375224337875 501.8176139858915,80.27326927316358 512.7936121289558,80.34542108099231 523.7696102720203,80.41088905669386 534.7456084150847,80.47030657766345 544.7709999945523,80.51938401238846" stroke-dasharray="" stroke-linejoin="miter" style="fill: none; stroke: rgb(0, 0, 255); stroke-width: 3; stroke-opacity: 1; stroke-linecap: butt;"></polyline><polyline id="SvgjsPolyline1203" points="0,0 0,404.2713" stroke="LightGray" stroke-width="1" fill="none"></polyline><polyline id="SvgjsPolyline1204" points="135.94275,0 135.94275,404.2713" stroke="LightGray" stroke-width="1" fill="none"></polyline><polyline id="SvgjsPolyline1205" points="271.8855,0 271.8855,404.2713" stroke="LightGray" stroke-width="1" fill="none"></polyline><polyline id="SvgjsPolyline1206" points="407.82825,0 407.82825,404.2713" stroke="LightGray" stroke-width="1" fill="none"></polyline><polyline id="SvgjsPolyline1207" points="0,404.2713 543.771,404.2713" stroke="LightGray" stroke-width="1" fill="none"></polyline><polyline id="SvgjsPolyline1208" points="0,323.4171 543.771,323.4171" stroke="LightGray" stroke-width="1" fill="none"></polyline><polyline id="SvgjsPolyline1209" points="0,242.56289999999998 543.771,242.56289999999998" stroke="LightGray" stroke-width="1" fill="none"></polyline><polyline id="SvgjsPolyline1210" points="0,161.70869999999996 543.771,161.70869999999996" stroke="LightGray" stroke-width="1" fill="none"></polyline><polyline id="SvgjsPolyline1211" points="0,80.85449999999997 543.771,80.85449999999997" stroke="LightGray" stroke-width="1" fill="none"></polyline><polyline id="SvgjsPolyline1212" points="0,0.00029999999998153726 543.771,0.00029999999998153726" stroke="LightGray" stroke-width="1" fill="none"></polyline><polyline id="SvgjsPolyline1213" points="0,405.2713 1.1742142546445862,404.2311410699161 2.748053849423154,402.8619409669344 4.325927885712128,401.5172481454433 6.628832356255066,399.6035269585514 8.142799808653518,398.37608412045785 9.65676726105197,397.172275283846 11.170734713450424,395.99152809923993 13.256080109468202,394.4019023691531 15.341425505485981,392.8535855956322 17.42677090150376,391.34523950115533 19.51211629752154,389.8755796340082 22.546630236182093,387.80357313017186 25.581144174842642,385.80728531351895 28.615658113503198,383.8833154380804 31.65017205216375,382.028448231448 35.34858251436339,379.8568271695603 39.04699297656304,377.77822183336303 42.74540343876268,375.78781646186815 46.44381390096233,373.8810919863968 51.02984611816785,371.6266732703366 55.61587833537337,369.4869893730552 60.20191055257889,367.4551184978958 64.78794276978441,365.5246219415691 70.06839584755241,363.419681849133 75.34884892532041,361.43293615134246 80.6293020030884,359.5566812508025 85.90975508085639,357.7837779355415 91.85625512682569,355.9028614115107 97.80275517279499,354.1361676644557 103.74925521876429,352.47581755306817 109.69575526473358,350.9145233414431 115.98165700654124,349.36449075397616 122.26755874834889,347.9105375011264 128.55346049015657,346.546036189613 134.83936223196423,345.2648429045948 141.5323358392431,343.98599222418125 148.225309446522,342.78903143535956 154.9182830538009,341.6682354073706 161.61125666107978,340.61828900309274 168.53485618738455,339.6015839293752 175.45845571368935,338.6505806664138 182.38205523999412,337.76072108746564 189.3056547662989,336.9277618800104 196.47682136787884,336.12089221287346 203.64798796945874,335.3669419452434 210.8191545710387,334.66223888435195 217.99032117261865,334.0033574183489 225.31486628032948,333.37444553621185 232.63941138804034,332.7869908363771 239.9639564957512,332.23813696544033 247.28850160346204,331.7252133929384 254.76310500215018,331.2362976672569 262.23770840083824,330.77985155901814 269.71231179952633,330.3536437474197 277.1869151982145,329.95558450252156 284.87740454546184,329.5733997152487 292.56789389270915,329.2170560933404 300.25838323995646,328.8847604975026 307.94887258720377,328.5748321936036 316.1082880240076,328.2687521170732 324.26770346081145,327.98441876613833 332.42711889761534,327.72025747441813 340.5865343344192,327.47479377722857 349.1383614800441,327.236134712202 357.69018862566907,327.0151106216727 366.24201577129395,326.81040096469104 374.79384291691895,326.6207700420004 383.8904396792951,326.43435832499335 392.9870364416713,326.26249516904335 402.08363320404754,326.1040353299239 411.1802299664237,325.9579087920067 420.8118872543275,325.8155631024952 430.4435445422312,325.6849104778222 440.07520183013486,325.56498579248347 449.7068591180386,325.45488863118476 459.99054829923574,325.34728091492946 470.2742374804328,325.24905870599343 480.55792666162995,325.1594021415751 490.8416158428271,325.07754775662147 501.8176139858915,324.99803072683665 512.7936121289558,324.9258789190079 523.7696102720203,324.8604109433063 534.7456084150847,324.8009934223368 544.7709999945523,324.75191598761177" stroke-dasharray="" stroke-linejoin="miter" style="fill: none; stroke: rgb(0, 170, 0); stroke-width: 3; stroke-opacity: 1; stroke-linecap: butt;"></polyline><polyline id="SvgjsPolyline1214" points="0,324.21704 1.1742142546445862,325.2571989300839 2.748053849423154,326.62639903306564 4.325927885712128,327.9710918545567 6.628832356255066,329.8848130414486 8.142799808653518,331.1122558795422 9.65676726105197,332.3160647161541 11.170734713450424,333.4968119007601 13.256080109468202,335.0864376308469 15.341425505485981,336.6347544043678 17.42677090150376,338.1431004988447 19.51211629752154,339.61276036599185 22.546630236182093,341.68476686982814 25.581144174842642,343.68105468648105 28.615658113503198,345.6050245619196 31.65017205216375,347.45989176855204 35.34858251436339,349.63151283043976 39.04699297656304,351.710118166637 42.74540343876268,353.70052353813185 46.44381390096233,355.60724801360317 51.02984611816785,357.8616667296634 55.61587833537337,360.00135062694477 60.20191055257889,362.0332215021042 64.78794276978441,363.96371805843097 70.06839584755241,366.068658150867 75.34884892532041,368.0554038486576 80.6293020030884,369.93165874919754 85.90975508085639,371.70456206445857 91.85625512682569,373.58547858848937 97.80275517279499,375.35217233554437 103.74925521876429,377.0125224469319 109.69575526473358,378.57381665855695 115.98165700654124,380.1238492460239 122.26755874834889,381.57780249887367 128.55346049015657,382.94230381038705 134.83936223196423,384.22349709540526 141.5323358392431,385.50234777581875 148.225309446522,386.69930856464043 154.9182830538009,387.8201045926294 161.61125666107978,388.8700509969073 168.53485618738455,389.88675607062487 175.45845571368935,390.8377593335862 182.38205523999412,391.7276189125344 189.3056547662989,392.56057811998966 196.47682136787884,393.3674477871266 203.64798796945874,394.12139805475664 210.8191545710387,394.8261011156481 217.99032117261865,395.4849825816511 225.31486628032948,396.1138944637882 232.63941138804034,396.7013491636229 239.9639564957512,397.2502030345597 247.28850160346204,397.7631266070617 254.76310500215018,398.25204233274314 262.23770840083824,398.70848844098185 269.71231179952633,399.1346962525803 277.1869151982145,399.53275549747843 284.87740454546184,399.91494028475137 292.56789389270915,400.2712839066597 300.25838323995646,400.6035795024974 307.94887258720377,400.9135078063964 316.1082880240076,401.2195878829268 324.26770346081145,401.50392123386166 332.42711889761534,401.7680825255819 340.5865343344192,402.0135462227715 349.1383614800441,402.25220528779806 357.69018862566907,402.4732293783273 366.24201577129395,402.677939035309 374.79384291691895,402.8675699579996 383.8904396792951,403.05398167500664 392.9870364416713,403.2258448309567 402.08363320404754,403.3843046700762 411.1802299664237,403.53043120799333 420.8118872543275,403.67277689750483 430.4435445422312,403.80342952217785 440.07520183013486,403.9233542075166 449.7068591180386,404.0334513688153 459.99054829923574,404.1410590850706 470.2742374804328,404.23928129400656 480.55792666162995,404.3289378584249 490.8416158428271,404.4107922433786 501.8176139858915,404.49030927316335 512.7936121289558,404.56246108099214 523.7696102720203,404.6279290566937 534.7456084150847,404.6873465776633 544.7709999945523,404.7364240123883" stroke-dasharray="" stroke-linejoin="miter" style="fill: none; stroke: rgb(255, 0, 0); stroke-width: 3; stroke-opacity: 1; stroke-linecap: butt;"></polyline></g></svg></svg><svg id="SvgjsSvg1245" x="587.771" style="overflow: visible;"><svg xmlns="http://www.w3.org/2000/svg" version="1.1" xmlns:xlink="http://www.w3.org/1999/xlink" xmlns:svgjs="http://svgjs.com/svgjs" width="200" height="160"><line id="SvgjsLine1232" x1="15" y1="90" x2="170" y2="90" stroke="gray" stroke-width="0.3"></line><line id="SvgjsLine1224" x1="15" y1="40" x2="170" y2="40" stroke="gray" stroke-width="0.3"></line><defs id="SvgjsDefs1215"><clipPath id="SvgjsClipPath1223"><rect id="SvgjsRect1222" width="170" height="30"></rect></clipPath><clipPath id="SvgjsClipPath1231"><rect id="SvgjsRect1230" width="170" height="80"></rect></clipPath><clipPath id="SvgjsClipPath1239"><rect id="SvgjsRect1238" width="170" height="130"></rect></clipPath><clipPath id="SvgjsClipPath1242"><rect id="SvgjsRect1241" width="180" height="160"></rect></clipPath></defs><g id="SvgjsG1216" clip-path="url(&quot;#SvgjsClipPath1242&quot;)"><g id="SvgjsG1217" transform="matrix(1,0,0,1,5,0)"><rect id="SvgjsRect1218" width="170" height="30" fill="white" opacity="0.5"></rect><line id="SvgjsLine1219" x1="0" y1="0" x2="18" y2="18" stroke="#ff0000" stroke-width="3" transform="matrix(1,0,0,1,5,5)" stroke-dasharray=""></line><text id="SvgjsText1220" font-family="Arial, Helvetica, sans-serif" font-size="14" font-weight="400" family="Arial, Helvetica, sans-serif" size="14" weight="400" transform="matrix(1,0,0,1,40,0)" svgjs:data="{&quot;leading&quot;:&quot;1.3&quot;}"><tspan id="SvgjsTspan1221" dy="18.2" x="0" svgjs:data="{&quot;newLined&quot;:true}">StopperBase</tspan></text></g><g id="SvgjsG1225" transform="matrix(1,0,0,1,5,50)"><rect id="SvgjsRect1226" width="170" height="30" fill="white" opacity="0.5"></rect><line id="SvgjsLine1227" x1="0" y1="0" x2="18" y2="18" stroke="#00aa00" stroke-width="3" transform="matrix(1,0,0,1,5,5)" stroke-dasharray=""></line><text id="SvgjsText1228" font-family="Arial, Helvetica, sans-serif" font-size="14" font-weight="400" family="Arial, Helvetica, sans-serif" size="14" weight="400" transform="matrix(1,0,0,1,40,0)" svgjs:data="{&quot;leading&quot;:&quot;1.3&quot;}"><tspan id="SvgjsTspan1229" dy="18.2" x="0" svgjs:data="{&quot;newLined&quot;:true}">StopperTrigger</tspan></text></g><g id="SvgjsG1233" transform="matrix(1,0,0,1,5,100)"><rect id="SvgjsRect1234" width="170" height="30" fill="white" opacity="0.5"></rect><line id="SvgjsLine1235" x1="0" y1="0" x2="18" y2="18" stroke="#0000ff" stroke-width="3" transform="matrix(1,0,0,1,5,5)" stroke-dasharray=""></line><text id="SvgjsText1236" font-family="Arial, Helvetica, sans-serif" font-size="14" font-weight="400" family="Arial, Helvetica, sans-serif" size="14" weight="400" transform="matrix(1,0,0,1,40,0)" svgjs:data="{&quot;leading&quot;:&quot;1.3&quot;}"><tspan id="SvgjsTspan1237" dy="18.2" x="0" svgjs:data="{&quot;newLined&quot;:true}">Trigger</tspan></text></g></g></svg></svg></svg>