<svg xmlns="http://www.w3.org/2000/svg" version="1.1" xmlns:xlink="http://www.w3.org/1999/xlink" xmlns:svgjs="http://svgjs.com/svgjs" width="787.771" height="463.938"><defs id="SvgjsDefs1160"></defs><svg id="SvgjsSvg1161" style="overflow: visible;"><svg xmlns="http://www.w3.org/2000/svg" version="1.1" xmlns:xlink="http://www.w3.org/1999/xlink" xmlns:svgjs="http://svgjs.com/svgjs" width="587.771" height="463.938"><defs id="SvgjsDefs1083"></defs><g id="SvgjsG1084" transform="matrix(1,0,0,1,0,0)"><g id="SvgjsG1085" transform="matrix(1,0,0,1,0,0)"><text id="SvgjsText1086" font-family="Arial, Helvetica, sans-serif" font-size="16" font-weight="400" text-anchor="middle" family="Arial, Helvetica, sans-serif" size="16" weight="400" anchor="middle" transform="matrix(0,-1,1,0,0,202.6355)" svgjs:data="{&quot;leading&quot;:&quot;1.3&quot;}"><tspan id="SvgjsTspan1087" dy="20.8" x="0" svgjs:data="{&quot;newLined&quot;:true}">Concentration (nM)</tspan></text></g><g id="SvgjsG1088" transform="matrix(1,0,0,1,20,0)" width="32" height="405.271"><text id="SvgjsText1089" font-family="Arial, Helvetica, sans-serif" font-size="16px" family="Arial, Helvetica, sans-serif" size="16px" transform="matrix(1,0,0,1,0,394.77099609375)" svgjs:data="{&quot;leading&quot;:&quot;1.3&quot;}"><tspan id="SvgjsTspan1090" dy="20.8" x="0" svgjs:data="{&quot;newLined&quot;:true}">0</tspan></text><text id="SvgjsText1091" font-family="Arial, Helvetica, sans-serif" font-size="16px" family="Arial, Helvetica, sans-serif" size="16px" transform="matrix(1,0,0,1,0,293.697998046875)" svgjs:data="{&quot;leading&quot;:&quot;1.3&quot;}"><tspan id="SvgjsTspan1092" dy="20.8" x="0" svgjs:data="{&quot;newLined&quot;:true}">5</tspan></text><text id="SvgjsText1093" font-family="Arial, Helvetica, sans-serif" font-size="16px" family="Arial, Helvetica, sans-serif" size="16px" transform="matrix(1,0,0,1,0,192.63499450683594)" svgjs:data="{&quot;leading&quot;:&quot;1.3&quot;}"><tspan id="SvgjsTspan1094" dy="20.8" x="0" svgjs:data="{&quot;newLined&quot;:true}">10</tspan></text><text id="SvgjsText1095" font-family="Arial, Helvetica, sans-serif" font-size="16px" family="Arial, Helvetica, sans-serif" size="16px" transform="matrix(1,0,0,1,0,91.5625)" svgjs:data="{&quot;leading&quot;:&quot;1.3&quot;}"><tspan id="SvgjsTspan1096" dy="20.8" x="0" svgjs:data="{&quot;newLined&quot;:true}">15</tspan></text><text id="SvgjsText1097" font-family="Arial, Helvetica, sans-serif" font-size="16px" family="Arial, Helvetica, sans-serif" size="16px" transform="matrix(1,0,0,1,0,-9.5)" svgjs:data="{&quot;leading&quot;:&quot;1.3&quot;}"><tspan id="SvgjsTspan1098" dy="20.8" x="0" svgjs:data="{&quot;newLined&quot;:true}">20</tspan></text><path id="SvgjsPath1099" d="M31 0v405.271M31 404.271h-10M31 303.20325h-10M31 202.1355h-10M31 101.06774999999999h-10M31 0h-10M31 395.164225h-3.3333333333333335M31 385.05745h-3.3333333333333335M31 374.950675h-3.3333333333333335M31 364.8439h-3.3333333333333335M31 354.737125h-3.3333333333333335M31 344.63035h-3.3333333333333335M31 334.523575h-3.3333333333333335M31 324.4168h-3.3333333333333335M31 314.310025h-3.3333333333333335M31 294.096475h-3.3333333333333335M31 283.98969999999997h-3.3333333333333335M31 273.882925h-3.3333333333333335M31 263.77615000000003h-3.3333333333333335M31 253.669375h-3.3333333333333335M31 243.5626h-3.3333333333333335M31 233.455825h-3.3333333333333335M31 223.34905h-3.3333333333333335M31 213.242275h-3.3333333333333335M31 193.028725h-3.3333333333333335M31 182.92195h-3.3333333333333335M31 172.815175h-3.3333333333333335M31 162.70839999999998h-3.3333333333333335M31 152.60162499999998h-3.3333333333333335M31 142.49484999999999h-3.3333333333333335M31 132.38807500000001h-3.3333333333333335M31 122.28129999999999h-3.3333333333333335M31 112.17452500000002h-3.3333333333333335M31 91.96097500000002h-3.3333333333333335M31 81.85419999999999h-3.3333333333333335M31 71.74742499999996h-3.3333333333333335M31 61.640649999999994h-3.3333333333333335M31 51.533874999999966h-3.3333333333333335M31 41.427099999999996h-3.3333333333333335M31 31.32032499999997h-3.3333333333333335M31 21.213549999999998h-3.3333333333333335M31 11.10677499999997h-3.3333333333333335" stroke="#000000" fill="none"></path></g></g><g id="SvgjsG1100"><g id="SvgjsG1101" transform="matrix(1,0,0,1,52,0)"><text id="SvgjsText1102" font-family="Arial, Helvetica, sans-serif" font-size="16" font-weight="400" text-anchor="middle" family="Arial, Helvetica, sans-serif" size="16" weight="400" anchor="middle" transform="matrix(1,0,0,1,0,0)" svgjs:data="{&quot;leading&quot;:&quot;1.3&quot;}"><tspan id="SvgjsTspan1103" dy="20.8" x="0" svgjs:data="{&quot;newLined&quot;:true}"></tspan></text></g></g><g id="SvgjsG1104"><g id="SvgjsG1105" transform="matrix(1,0,0,1,52,405.2713)" width="535.771" height="30"><text id="SvgjsText1106" font-family="Arial, Helvetica, sans-serif" font-size="16px" family="Arial, Helvetica, sans-serif" size="16px" transform="matrix(1,0,0,1,-4.5,10)" svgjs:data="{&quot;leading&quot;:&quot;1.3&quot;}"><tspan id="SvgjsTspan1107" dy="20.8" x="0" svgjs:data="{&quot;newLined&quot;:true}">0</tspan></text><text id="SvgjsText1108" font-family="Arial, Helvetica, sans-serif" font-size="16px" family="Arial, Helvetica, sans-serif" size="16px" transform="matrix(1,0,0,1,130.542,10)" svgjs:data="{&quot;leading&quot;:&quot;1.3&quot;}"><tspan id="SvgjsTspan1109" dy="20.8" x="0" svgjs:data="{&quot;newLined&quot;:true}">2000</tspan></text><text id="SvgjsText1110" font-family="Arial, Helvetica, sans-serif" font-size="16px" family="Arial, Helvetica, sans-serif" size="16px" transform="matrix(1,0,0,1,279.094,10)" svgjs:data="{&quot;leading&quot;:&quot;1.3&quot;}"><tspan id="SvgjsTspan1111" dy="20.8" x="0" svgjs:data="{&quot;newLined&quot;:true}">4000</tspan></text><text id="SvgjsText1112" font-family="Arial, Helvetica, sans-serif" font-size="16px" family="Arial, Helvetica, sans-serif" size="16px" transform="matrix(1,0,0,1,427.635,10)" svgjs:data="{&quot;leading&quot;:&quot;1.3&quot;}"><tspan id="SvgjsTspan1113" dy="20.8" x="0" svgjs:data="{&quot;newLined&quot;:true}">6000</tspan></text><path id="SvgjsPath1114" d="M0 0h535.771M0 0v10M148.54749999999999 0v10M297.09499999999997 0v10M445.6425 0v10M14.85475 0v3.3333333333333335M29.7095 0v3.3333333333333335M44.56425 0v3.3333333333333335M59.419 0v3.3333333333333335M74.27374999999999 0v3.3333333333333335M89.1285 0v3.3333333333333335M103.98325 0v3.3333333333333335M118.838 0v3.3333333333333335M133.69275 0v3.3333333333333335M163.40225 0v3.3333333333333335M178.257 0v3.3333333333333335M193.11175 0v3.3333333333333335M207.9665 0v3.3333333333333335M222.82125 0v3.3333333333333335M237.676 0v3.3333333333333335M252.53075 0v3.3333333333333335M267.3855 0v3.3333333333333335M282.24025 0v3.3333333333333335M311.94975 0v3.3333333333333335M326.8045 0v3.3333333333333335M341.65925 0v3.3333333333333335M356.514 0v3.3333333333333335M371.36875 0v3.3333333333333335M386.2235 0v3.3333333333333335M401.07825 0v3.3333333333333335M415.933 0v3.3333333333333335M430.78775 0v3.3333333333333335M460.49725 0v3.3333333333333335M475.352 0v3.3333333333333335M490.20675 0v3.3333333333333335M505.0615 0v3.3333333333333335M519.91625 0v3.3333333333333335" stroke="#000000" fill="none"></path></g><g id="SvgjsG1115" transform="matrix(1,0,0,1,52,435.2713)"><text id="SvgjsText1116" font-family="Arial, Helvetica, sans-serif" font-size="16" font-weight="400" text-anchor="middle" family="Arial, Helvetica, sans-serif" size="16" weight="400" anchor="middle" transform="matrix(1,0,0,1,267.8855,-9.33335)" svgjs:data="{&quot;leading&quot;:&quot;1.3&quot;}"><tspan id="SvgjsTspan1117" dy="20.8" x="0" svgjs:data="{&quot;newLined&quot;:true}">Time (s)</tspan></text></g></g><g id="SvgjsG1118"></g><g id="SvgjsG1119" viewBox="0 0 535.771 405.2713" transform="matrix(1,0,0,1,52,0)"><polyline id="SvgjsPolyline1120" points="0,0 0.4451391589610873,14.042085890112673 0.9345662286520425,28.39935330707408 1.4601887084441227,42.68937128664868 2.1407838783249473,59.657901984595924 2.736297416595284,73.25362919476117 3.3318109548656207,85.82017546610854 4.103308919353461,100.75201780912283 4.874806883841301,114.35027661864905 5.820616960574989,129.4499219338258 6.766427037308677,143.05943879891328 7.344811170485685,150.7396560996247 7.923195303662693,157.98267895260068 8.5015794368397,164.8248360525315 9.079963570016709,171.2986815414507 9.773334895129336,178.61451738610714 10.466706220241965,185.4866145168082 11.160077545354593,191.95419239529352 11.85344887046722,198.05215853150327 12.686184214894228,204.93032220381838 13.518919559321235,211.3664172288955 14.35165490374824,217.4017744951835 15.184390248175248,223.0729429602986 16.16394475083529,229.3207907805159 17.143499253495335,235.1542175348998 18.12305375615538,240.61317132998988 19.102608258815422,245.732849406374 20.22985193231164,251.2440698323632 21.35709560580786,256.3871170261999 22.484339279304077,261.1977266308585 23.611582952800294,265.70735802210044 24.91610524554696,270.58614629248916 26.22062753829362,275.135245527425 27.525149831040284,279.38701376930527 28.829672123786946,283.3698982343566 30.326021154687854,287.63899302346675 31.822370185588756,291.61909249598796 33.31871921648966,295.338608953198 34.81506824739057,298.82251553601526 36.53646151613035,302.5668763629742 38.25785478487013,306.05668331522975 39.97924805360992,309.3170658164826 41.7006413223497,312.3701002995642 43.673714508379646,315.638965217599 45.64678769440958,318.6855334007355 47.61986088043953,321.53175642158226 49.592934066469475,324.1969182295454 51.857721676551805,327.05437502837725 54.12250928663414,329.7172006674836 56.387296896716464,332.20464462128507 58.65208450679879,334.5336138646401 61.24776485633635,337.02670485329713 63.843445205873905,339.3499861918543 66.43912555541147,341.52025213321366 69.03480590494902,343.5522532449612 72.01174461359854,345.72887735673385 74.98868332224804,347.75715559636404 77.96562203089756,349.6517681940966 80.94256073954706,351.42560799772536 84.35456815259823,353.32444639778635 87.7665755656494,355.0938789948163 91.17858297870056,356.7467109698998 94.59059039175173,358.2941884986211 98.50248456767463,359.9512242298485 102.41437874359751,361.4953057174338 106.3262729195204,362.93761281302574 110.2381670954433,364.28796395938036 114.72196073910573,365.73351392670776 119.20575438276813,367.08053021977094 123.68954802643054,368.33876497300867 128.17334167009298,369.51678281511323 133.31338634394726,370.7780294680902 138.45343101780156,371.9532969068512 143.59347569165587,373.0510955120531 148.73352036551017,374.07889927918563 154.62517515932012,375.179187858982 160.51682995313013,376.20447162811394 166.40848474694008,377.16217451982476 172.30013954075005,378.0588164082597 179.05375194285594,379.01875524228075 185.8073643449618,379.9132541094005 192.56097674706766,380.74879046533465 199.31458914917354,381.5310529385712 207.05587345218115,382.3684949959605 214.7971577551888,383.1488485544671 222.53844205819647,383.87776434381186 230.2797263612041,384.5602049532566 239.15338456787387,385.2908052390918 248.02704277454367,385.9715996359275 256.90070098121345,386.60751810361865 265.77435918788325,387.2028902278662 275.94580892093217,387.8402634917957 286.1172586539812,388.43418654069836 296.28870838703017,388.98896020120395 306.4601581200791,389.5083615449826 318.11935785332315,390.0644118892307 329.7785575865672,390.5825556079234 341.4377573198112,391.0665448317741 353.0969570530553,391.5196747541065 366.4613884231575,392.00477288786317 379.8258197932596,392.4568013942512 393.1902511633618,392.8790336113625 406.5546825334639,393.27434424867755 421.87383643951955,393.69754644059526 437.1929903455751,394.09189843174323 452.5121442516306,394.46025591564546 467.8312981576862,394.805126817308 485.3910051923927,395.1743288957231 502.9507122270991,395.51836206119316 520.5104192618055,395.8397176171451 535.7709999946422,396.10119052778816" stroke-dasharray="" stroke-linejoin="miter" style="fill: none; stroke: rgb(0, 0, 255); stroke-width: 3; stroke-opacity: 1; stroke-linecap: butt;"></polyline><polyline id="SvgjsPolyline1121" points="0,0 0,404.2713" stroke="LightGray" stroke-width="1" fill="none"></polyline><polyline id="SvgjsPolyline1122" points="148.54749999999999,0 148.54749999999999,404.2713" stroke="LightGray" stroke-width="1" fill="none"></polyline><polyline id="SvgjsPolyline1123" points="297.09499999999997,0 297.09499999999997,404.2713" stroke="LightGray" stroke-width="1" fill="none"></polyline><polyline id="SvgjsPolyline1124" points="445.6425,0 445.6425,404.2713" stroke="LightGray" stroke-width="1" fill="none"></polyline><polyline id="SvgjsPolyline1125" points="0,404.2713 534.771,404.2713" stroke="LightGray" stroke-width="1" fill="none"></polyline><polyline id="SvgjsPolyline1126" points="0,303.20355 534.771,303.20355" stroke="LightGray" stroke-width="1" fill="none"></polyline><polyline id="SvgjsPolyline1127" points="0,202.1358 534.771,202.1358" stroke="LightGray" stroke-width="1" fill="none"></polyline><polyline id="SvgjsPolyline1128" points="0,101.06804999999997 534.771,101.06804999999997" stroke="LightGray" stroke-width="1" fill="none"></polyline><polyline id="SvgjsPolyline1129" points="0,0.00029999999998153726 534.771,0.00029999999998153726" stroke="LightGray" stroke-width="1" fill="none"></polyline><polyline id="SvgjsPolyline1130" points="0,405.2713 0.4451391589610873,391.2292141098873 0.9345662286520425,376.8719466929259 1.4601887084441227,362.58192871335126 2.1407838783249473,345.613398015404 2.736297416595284,332.0176708052388 3.3318109548656207,319.4511245338914 4.103308919353461,304.5192821908771 4.874806883841301,290.9210233813509 5.820616960574989,275.82137806617413 6.766427037308677,262.21186120108666 7.344811170485685,254.53164390037523 7.923195303662693,247.2886210473993 8.5015794368397,240.44646394746846 9.079963570016709,233.97261845854922 9.773334895129336,226.6567826138928 10.466706220241965,219.7846854831917 11.160077545354593,213.3171076047064 11.85344887046722,207.21914146849667 12.686184214894228,200.34097779618153 13.518919559321235,193.90488277110444 14.35165490374824,187.86952550481644 15.184390248175248,182.19835703970134 16.16394475083529,175.95050921948402 17.143499253495335,170.1170824651001 18.12305375615538,164.65812867001003 19.102608258815422,159.53845059362595 20.22985193231164,154.02723016763673 21.35709560580786,148.88418297380002 22.484339279304077,144.07357336914146 23.611582952800294,139.5639419778995 24.91610524554696,134.68515370751072 26.22062753829362,130.13605447257487 27.525149831040284,125.88428623069461 28.829672123786946,121.90140176564336 30.326021154687854,117.63230697653313 31.822370185588756,113.65220750401198 33.31871921648966,109.93269104680195 34.81506824739057,106.44878446398462 36.53646151613035,102.70442363702568 38.25785478487013,99.21461668477019 39.97924805360992,95.95423418351726 41.7006413223497,92.90119970043565 43.673714508379646,89.63233478240085 45.64678769440958,86.58576659926439 47.61986088043953,83.73954357841762 49.592934066469475,81.07438177045458 51.857721676551805,78.21692497162275 54.12250928663414,75.55409933251633 56.387296896716464,73.06665537871481 58.65208450679879,70.73768613535998 61.24776485633635,68.24459514670292 63.843445205873905,65.92131380814573 66.43912555541147,63.751047866786394 69.03480590494902,61.719046755038846 72.01174461359854,59.54242264326621 74.98868332224804,57.51414440363601 77.96562203089756,55.61953180590348 80.94256073954706,53.845692002274575 84.35456815259823,51.94685360221365 87.7665755656494,50.1774210051837 91.17858297870056,48.52458903010012 94.59059039175173,46.97711150137883 98.50248456767463,45.32007577015145 102.41437874359751,43.77599428256622 106.3262729195204,42.3336871869742 110.2381670954433,40.98333604061958 114.72196073910573,39.53778607329218 119.20575438276813,38.190769780229004 123.68954802643054,36.932535026991275 128.17334167009298,35.75451718488682 133.31338634394726,34.493270531909786 138.45343101780156,33.318003093148775 143.59347569165587,32.22020448794689 148.73352036551017,31.19240072081442 154.62517515932012,30.09211214101805 160.51682995313013,29.066828371886118 166.40848474694008,28.109125480175294 172.30013954075005,27.21248359174035 179.05375194285594,26.252544757719306 185.8073643449618,25.358045890599612 192.56097674706766,24.522509534665346 199.31458914917354,23.740247061428988 207.05587345218115,22.902805004039692 214.7971577551888,22.122451445533045 222.53844205819647,21.393535656188362 230.2797263612041,20.711095046743537 239.15338456787387,19.9804947609083 248.02704277454367,19.299700364072635 256.90070098121345,18.663781896381465 265.77435918788325,18.068409772133975 275.94580892093217,17.431036508204443 286.1172586539812,16.837113459301747 296.28870838703017,16.28233979879616 306.4601581200791,15.762938455017604 318.11935785332315,15.206888110769512 329.7785575865672,14.688744392076899 341.4377573198112,14.2047551682262 353.0969570530553,13.751625245893592 366.4613884231575,13.266527112136998 379.8258197932596,12.814498605748952 393.1902511633618,12.392266388637609 406.5546825334639,11.996955751322616 421.87383643951955,11.573753559404963 437.1929903455751,11.179401568256935 452.5121442516306,10.811044084354762 467.8312981576862,10.466173182692216 485.3910051923927,10.096971104277088 502.9507122270991,9.752937938807008 520.5104192618055,9.43158238285514 535.7709999946422,9.170109472211891" stroke-dasharray="" stroke-linejoin="miter" style="fill: none; stroke: rgb(0, 170, 0); stroke-width: 3; stroke-opacity: 1; stroke-linecap: butt;"></polyline><polyline id="SvgjsPolyline1131" points="0,0 0.4451391589610873,14.042085890112673 0.9345662286520425,28.39935330707408 1.4601887084441227,42.68937128664868 2.1407838783249473,59.657901984595924 2.736297416595284,73.25362919476117 3.3318109548656207,85.82017546610854 4.103308919353461,100.75201780912283 4.874806883841301,114.35027661864905 5.820616960574989,129.4499219338258 6.766427037308677,143.05943879891328 7.344811170485685,150.7396560996247 7.923195303662693,157.98267895260068 8.5015794368397,164.8248360525315 9.079963570016709,171.2986815414507 9.773334895129336,178.61451738610714 10.466706220241965,185.4866145168082 11.160077545354593,191.95419239529352 11.85344887046722,198.05215853150327 12.686184214894228,204.93032220381838 13.518919559321235,211.3664172288955 14.35165490374824,217.4017744951835 15.184390248175248,223.0729429602986 16.16394475083529,229.3207907805159 17.143499253495335,235.1542175348998 18.12305375615538,240.61317132998988 19.102608258815422,245.732849406374 20.22985193231164,251.2440698323632 21.35709560580786,256.3871170261999 22.484339279304077,261.1977266308585 23.611582952800294,265.70735802210044 24.91610524554696,270.58614629248916 26.22062753829362,275.135245527425 27.525149831040284,279.38701376930527 28.829672123786946,283.3698982343566 30.326021154687854,287.63899302346675 31.822370185588756,291.61909249598796 33.31871921648966,295.338608953198 34.81506824739057,298.82251553601526 36.53646151613035,302.5668763629742 38.25785478487013,306.05668331522975 39.97924805360992,309.3170658164826 41.7006413223497,312.3701002995642 43.673714508379646,315.638965217599 45.64678769440958,318.6855334007355 47.61986088043953,321.53175642158226 49.592934066469475,324.1969182295454 51.857721676551805,327.05437502837725 54.12250928663414,329.7172006674836 56.387296896716464,332.20464462128507 58.65208450679879,334.5336138646401 61.24776485633635,337.02670485329713 63.843445205873905,339.3499861918543 66.43912555541147,341.52025213321366 69.03480590494902,343.5522532449612 72.01174461359854,345.72887735673385 74.98868332224804,347.75715559636404 77.96562203089756,349.6517681940966 80.94256073954706,351.42560799772536 84.35456815259823,353.32444639778635 87.7665755656494,355.0938789948163 91.17858297870056,356.7467109698998 94.59059039175173,358.2941884986211 98.50248456767463,359.9512242298485 102.41437874359751,361.4953057174338 106.3262729195204,362.93761281302574 110.2381670954433,364.28796395938036 114.72196073910573,365.73351392670776 119.20575438276813,367.08053021977094 123.68954802643054,368.33876497300867 128.17334167009298,369.51678281511323 133.31338634394726,370.7780294680902 138.45343101780156,371.9532969068512 143.59347569165587,373.0510955120531 148.73352036551017,374.07889927918563 154.62517515932012,375.179187858982 160.51682995313013,376.20447162811394 166.40848474694008,377.16217451982476 172.30013954075005,378.0588164082597 179.05375194285594,379.01875524228075 185.8073643449618,379.9132541094005 192.56097674706766,380.74879046533465 199.31458914917354,381.5310529385712 207.05587345218115,382.3684949959605 214.7971577551888,383.1488485544671 222.53844205819647,383.87776434381186 230.2797263612041,384.5602049532566 239.15338456787387,385.2908052390918 248.02704277454367,385.9715996359275 256.90070098121345,386.60751810361865 265.77435918788325,387.2028902278662 275.94580892093217,387.8402634917957 286.1172586539812,388.43418654069836 296.28870838703017,388.98896020120395 306.4601581200791,389.5083615449826 318.11935785332315,390.0644118892307 329.7785575865672,390.5825556079234 341.4377573198112,391.0665448317741 353.0969570530553,391.5196747541065 366.4613884231575,392.00477288786317 379.8258197932596,392.4568013942512 393.1902511633618,392.8790336113625 406.5546825334639,393.27434424867755 421.87383643951955,393.69754644059526 437.1929903455751,394.09189843174323 452.5121442516306,394.46025591564546 467.8312981576862,394.805126817308 485.3910051923927,395.1743288957231 502.9507122270991,395.51836206119316 520.5104192618055,395.8397176171451 535.7709999946422,396.10119052778816" stroke-dasharray="" stroke-linejoin="miter" style="fill: none; stroke: rgb(255, 0, 0); stroke-width: 3; stroke-opacity: 1; stroke-linecap: butt;"></polyline></g></svg></svg><svg id="SvgjsSvg1162" x="587.771" style="overflow: visible;"><svg xmlns="http://www.w3.org/2000/svg" version="1.1" xmlns:xlink="http://www.w3.org/1999/xlink" xmlns:svgjs="http://svgjs.com/svgjs" width="200" height="160"><line id="SvgjsLine1149" x1="15" y1="90" x2="170" y2="90" stroke="gray" stroke-width="0.3"></line><line id="SvgjsLine1141" x1="15" y1="40" x2="170" y2="40" stroke="gray" stroke-width="0.3"></line><defs id="SvgjsDefs1132"><clipPath id="SvgjsClipPath1140"><rect id="SvgjsRect1139" width="170" height="30"></rect></clipPath><clipPath id="SvgjsClipPath1148"><rect id="SvgjsRect1147" width="170" height="80"></rect></clipPath><clipPath id="SvgjsClipPath1156"><rect id="SvgjsRect1155" width="170" height="130"></rect></clipPath><clipPath id="SvgjsClipPath1159"><rect id="SvgjsRect1158" width="180" height="160"></rect></clipPath></defs><g id="SvgjsG1133" clip-path="url(&quot;#SvgjsClipPath1159&quot;)"><g id="SvgjsG1134" transform="matrix(1,0,0,1,5,0)"><rect id="SvgjsRect1135" width="170" height="30" fill="white" opacity="0.5"></rect><line id="SvgjsLine1136" x1="0" y1="0" x2="18" y2="18" stroke="#ff0000" stroke-width="3" transform="matrix(1,0,0,1,5,5)" stroke-dasharray=""></line><text id="SvgjsText1137" font-family="Arial, Helvetica, sans-serif" font-size="14" font-weight="400" family="Arial, Helvetica, sans-serif" size="14" weight="400" transform="matrix(1,0,0,1,40,0)" svgjs:data="{&quot;leading&quot;:&quot;1.3&quot;}"><tspan id="SvgjsTspan1138" dy="18.2" x="0" svgjs:data="{&quot;newLined&quot;:true}">input2</tspan></text></g><g id="SvgjsG1142" transform="matrix(1,0,0,1,5,50)"><rect id="SvgjsRect1143" width="170" height="30" fill="white" opacity="0.5"></rect><line id="SvgjsLine1144" x1="0" y1="0" x2="18" y2="18" stroke="#00aa00" stroke-width="3" transform="matrix(1,0,0,1,5,5)" stroke-dasharray=""></line><text id="SvgjsText1145" font-family="Arial, Helvetica, sans-serif" font-size="14" font-weight="400" family="Arial, Helvetica, sans-serif" size="14" weight="400" transform="matrix(1,0,0,1,40,0)" svgjs:data="{&quot;leading&quot;:&quot;1.3&quot;}"><tspan id="SvgjsTspan1146" dy="18.2" x="0" svgjs:data="{&quot;newLined&quot;:true}">output</tspan></text></g><g id="SvgjsG1150" transform="matrix(1,0,0,1,5,100)"><rect id="SvgjsRect1151" width="170" height="30" fill="white" opacity="0.5"></rect><line id="SvgjsLine1152" x1="0" y1="0" x2="18" y2="18" stroke="#0000ff" stroke-width="3" transform="matrix(1,0,0,1,5,5)" stroke-dasharray=""></line><text id="SvgjsText1153" font-family="Arial, Helvetica, sans-serif" font-size="14" font-weight="400" family="Arial, Helvetica, sans-serif" size="14" weight="400" transform="matrix(1,0,0,1,40,0)" svgjs:data="{&quot;leading&quot;:&quot;1.3&quot;}"><tspan id="SvgjsTspan1154" dy="18.2" x="0" svgjs:data="{&quot;newLined&quot;:true}">input1</tspan></text></g></g></svg></svg></svg>